<?xml version="1.0" encoding="UTF-8" standalone="no"?>
<!-- Created with Inkscape (http://www.inkscape.org/) -->

<svg
   width="148.54594mm"
   height="100.60297mm"
   viewBox="0 0 148.54594 100.60297"
   version="1.1"
   id="svg1"
   xml:space="preserve"
   xmlns:inkscape="http://www.inkscape.org/namespaces/inkscape"
   xmlns:sodipodi="http://sodipodi.sourceforge.net/DTD/sodipodi-0.dtd"
   xmlns="http://www.w3.org/2000/svg"
   xmlns:svg="http://www.w3.org/2000/svg"><sodipodi:namedview
     id="namedview1"
     pagecolor="#ffffff"
     bordercolor="#000000"
     borderopacity="0.25"
     inkscape:showpageshadow="2"
     inkscape:pageopacity="0.0"
     inkscape:pagecheckerboard="0"
     inkscape:deskcolor="#d1d1d1"
     inkscape:document-units="mm"
     inkscape:zoom="0.6236289"
     inkscape:cx="408.89702"
     inkscape:cy="966.11944"
     inkscape:window-width="1366"
     inkscape:window-height="697"
     inkscape:window-x="-8"
     inkscape:window-y="433"
     inkscape:window-maximized="1"
     inkscape:current-layer="svg1" /><defs
     id="defs1" /><path
     style="fill:#c9251f"
     d="m 56.095477,99.612012 c -1.65903,-0.9253 -3.436061,-1.92449 -13.589613,-7.64121 -10.851315,-6.10958 -11.305553,-6.37541 -11.377783,-6.6585 -0.03837,-0.15041 -0.02333,-0.31856 0.03343,-0.37367 0.17669,-0.17156 14.644823,-8.65774 16.4203,-9.6312 1.385311,-0.75955 1.442188,-0.74824 4.265704,0.84832 2.594879,1.46727 10.735158,6.03654 14.553139,8.1689 1.327162,0.74123 3.419427,1.91667 4.649479,2.61209 1.230052,0.69542 2.780865,1.56698 3.44625,1.93679 0.665386,0.36982 1.353982,0.79799 1.530212,0.9515 l 0.32041,0.27911 -0.29427,0.28799 c -0.16185,0.15839 -2.757315,1.73245 -5.767706,3.49791 -5.128161,3.00743 -7.789459,4.57918 -10.287739,6.0759 -1.514476,0.907318 -1.664886,0.893668 -3.901815,-0.35393 z m 0.04699,-5.26849 c 0.416229,-0.1451 0.469791,-0.33917 0.1647,-0.59674 -0.488683,-0.41258 -3.164803,-1.78606 -4.340222,-2.22757 -1.902408,-0.71458 -2.45704,-1.00685 -3.198272,-1.68537 -1.336333,-1.22329 -3.489435,-2.04661 -3.169102,-1.21184 0.0355,0.0925 0.426461,0.36715 0.868798,0.61028 0.442338,0.24314 1.124287,0.74042 1.515443,1.10507 0.88928,0.82901 1.542311,1.18308 3.299484,1.78898 1.417712,0.48885 1.717074,0.63854 3.45277,1.72647 0.543981,0.34097 0.999553,0.61994 1.012383,0.61994 0.01283,0 0.190139,-0.0581 0.394018,-0.12922 z m 1.759648,-3.89641 c 0.07769,-0.0777 0.14125,-0.20769 0.14125,-0.2889 0,-0.16653 -1.373827,-0.84301 -2.354166,-1.15921 -0.994017,-0.32061 -1.631017,-0.67752 -2.53073,-1.41797 -0.996624,-0.8202 -2.368891,-1.50282 -3.046448,-1.51542 -0.7931,-0.0147 -0.602411,0.27673 0.567188,0.86697 0.578594,0.29199 1.346641,0.80011 1.706771,1.12916 0.989038,0.90366 1.270414,1.06533 2.665576,1.53158 0.706771,0.2362 1.496913,0.55621 1.755872,0.71113 0.519743,0.31095 0.879518,0.35783 1.094687,0.14266 z m 8.004691,-0.87513 c 0.04402,-0.30866 -0.126689,-0.41755 -2.62542,-1.6747 -1.262649,-0.63526 -2.135486,-1.16239 -2.648437,-1.59948 -0.829486,-0.7068 -2.15036,-1.44371 -3.178125,-1.77307 -0.995199,-0.31892 -1.672931,-0.69701 -2.367174,-1.3206 -0.834363,-0.74945 -1.067894,-0.88668 -2.046889,-1.20283 -0.686289,-0.22163 -2.223823,-0.99209 -4.273655,-2.14152 -0.420499,-0.2358 -0.808749,-0.27596 -1.069799,-0.11066 -0.253142,0.16029 -0.07722,0.43409 0.480763,0.74825 0.279115,0.15715 1.051301,0.59115 1.715967,0.96444 0.664667,0.3733 1.750526,0.88778 2.413021,1.14329 1.052601,0.40597 1.301044,0.55866 1.96964,1.21057 0.878706,0.85677 1.219689,1.04365 3.001563,1.64505 1.464085,0.49415 1.964026,0.75738 2.896758,1.52526 0.961081,0.79122 4.896137,2.90193 5.342826,2.86582 0.259544,-0.021 0.362621,-0.0951 0.388961,-0.27982 z m 28.549312,4.40204 c -0.85614,-0.78719 -2.91862,-3.31624 -3.86499,-4.7393 -2.25731,-3.39435 -3.83568,-7.06081 -4.5805,-10.64023 -0.56316,-2.70643 -0.78155,-5.72309 -0.4726,-6.52819 0.0343,-0.0894 0.78146,-0.57268 1.66034,-1.07398 l 1.59798,-0.91146 0.66127,0.14248 c 0.99398,0.21416 4.14193,0.28923 5.35559,0.12772 0.57295,-0.0762 1.64821,-0.32246 2.38947,-0.54714 1.729209,-0.52415 1.768759,-0.5086 2.568289,1.01013 1.580013,3.00125 3.378713,5.39743 5.360703,7.14136 0.68699,0.60448 1.30787,1.25536 1.40498,1.47288 0.21745,0.48706 0.23545,3.51436 0.0283,4.75398 -0.22007,1.31674 -0.70071,2.84858 -1.23441,3.93422 -0.6605,1.34357 -1.80083,2.49061 -3.55754,3.57847 -0.71162,0.44067 -1.38636,0.81904 -1.49943,0.84082 -0.11308,0.0218 -0.380583,0.17306 -0.594463,0.33619 -0.75104,0.57285 -2.776239,1.31354 -4.175979,1.52731 -0.47085,0.0719 -0.53428,0.0461 -1.04697,-0.42526 z m 7.041182,-2.61249 c 0.82868,-1.01322 1.6775,-2.80924 2.0375,-4.31117 0.40908,-1.70667 0.52464,-2.71878 0.52889,-4.63209 l 0.004,-1.63729 -0.48205,-0.42261 c -2.91973,-2.55974 -4.175273,-4.15255 -6.572872,-8.3385 -0.54961,-0.95955 -0.64429,-0.9969 -1.70868,-0.67403 -1.9981,0.60611 -5.53836,0.69889 -7.12703,0.18678 -0.78522,-0.25311 -1.29524,-0.31622 -1.2942,-0.16014 7e-4,0.10594 1.56983,0.57733 2.45792,0.7384 1.40275,0.2544 3.38036,0.0982 5.55842,-0.43897 0.68679,-0.16939 1.32394,-0.27911 1.41589,-0.24382 0.0919,0.0353 0.50172,0.69269 0.91059,1.46091 1.527959,2.87083 3.314612,5.20543 5.298082,6.92296 0.71929,0.62284 1.22275,1.15178 1.26803,1.3322 0.11786,0.46959 -0.0477,3.38337 -0.26235,4.61816 -0.48483,2.78853 -1.28533,4.58257 -2.7527,6.16916 -0.4119,0.44536 -0.45755,0.52825 -0.19894,0.36119 0.1846,-0.11925 0.59854,-0.53826 0.91986,-0.93114 z m -4.362752,-3.98227 c 0.669499,-0.44593 0.855229,-0.99302 0.908539,-2.67631 0.0563,-1.77842 -0.0566,-2.25956 -0.702439,-2.99329 -0.48739,-0.55369 -0.4879,-0.55531 -0.46821,-1.45837 0.0162,-0.74136 -0.0322,-1.01412 -0.26863,-1.51552 -0.73159,-1.5513 -2.45332,-2.64296 -3.38335,-2.14522 -0.34643,0.1854 -0.57084,0.82511 -0.57084,1.6272 v 0.70257 l -0.37987,0.0369 c -0.60421,0.0587 -0.70131,0.37775 -0.63806,2.09678 0.0617,1.67651 0.25327,2.51594 0.85585,3.74995 1.06012,2.17102 3.34932,3.43966 4.64701,2.57532 z m -2.42546,-2.25862 -0.47125,-0.24973 0.10001,-0.62831 c 0.0874,-0.5491 0.0686,-0.67086 -0.14944,-0.96572 -0.29544,-0.3996 -0.41836,-0.92176 -0.31446,-1.33575 0.0882,-0.35148 0.47588,-0.39934 1.00758,-0.12439 0.5824,0.30117 0.8285,0.72617 0.8285,1.43073 0,0.54813 -0.0304,0.63152 -0.23003,0.63152 -0.20038,0 -0.23453,0.0962 -0.26485,0.74569 l -0.0348,0.74568 z m -0.0854,-5.10323 c -1.24744,-0.73001 -1.2805,-0.78447 -1.02807,-1.69337 0.13025,-0.46894 0.41063,-0.63448 0.84907,-0.5013 0.4269,0.12968 1.01491,0.62427 1.22488,1.0303 0.23641,0.45716 0.40534,1.85095 0.22316,1.84119 -0.0681,-0.004 -0.63917,-0.30822 -1.26904,-0.67682 z m 41.340512,7.00127 c -0.22543,-0.15062 -1.20441,-0.72666 -2.1755,-1.28008 -5.55536,-3.16599 -9.82265,-5.5832 -12.94792,-7.33437 -6.05021,-3.39011 -7.52557,-4.26105 -7.76875,-4.58609 -0.23072,-0.3084 -0.23604,-0.52324 -0.26671,-10.78636 -0.0192,-6.42345 0.0118,-10.55215 0.0801,-10.67981 0.14378,-0.26866 2.23892,-1.43131 2.57927,-1.43131 0.23677,0 2.7359,1.33503 10.84955,5.79584 2.6149,1.43764 4.2271,2.32679 10.38304,5.72639 2.02988,1.12099 2.50667,1.51438 2.62375,2.16482 0.0375,0.2085 0.0529,5.02155 0.0341,10.69567 -0.0325,9.82564 -0.0444,10.32797 -0.25071,10.55587 -0.32572,0.35987 -2.17732,1.43328 -2.47236,1.43328 -0.14188,0 -0.44242,-0.12323 -0.66785,-0.27385 z m 1.15157,-10.89899 -0.0312,-10.81971 -0.29093,-0.30966 c -0.16002,-0.17031 -0.8751,-0.64442 -1.58907,-1.05357 -2.46339,-1.4117 -9.06347,-5.10571 -17.42416,-9.75219 -1.16532,-0.64762 -2.52804,-1.40858 -3.02829,-1.69101 -0.90726,-0.51223 -1.51475,-0.69836 -1.14615,-0.35117 0.0948,0.0893 3.40345,1.9502 7.35256,4.13534 3.94912,2.18515 8.37201,4.64603 9.82865,5.46863 1.45664,0.8226 3.25377,1.83525 3.99362,2.25033 0.73985,0.41509 1.52114,0.91987 1.7362,1.12173 l 0.39101,0.36702 v 10.72699 c 0,7.18115 0.0395,10.72699 0.11952,10.72699 0.0802,0 0.10925,-3.5553 0.0883,-10.81972 z m -9.70953,-0.25194 c 1.07878,-0.29958 1.74601,-1.31441 1.82636,-2.77779 0.22592,-4.11484 -3.72846,-9.08487 -7.03786,-8.84549 -0.88872,0.0643 -1.44121,0.47732 -1.9425,1.4522 -0.3363,0.65403 -0.35285,0.7544 -0.34731,2.10719 0.005,1.3051 0.0364,1.50114 0.3826,2.4142 0.5707,1.50519 1.23808,2.53743 2.36733,3.66154 1.66607,1.65851 3.37037,2.37165 4.75138,1.98815 z m -4.15244,-6.25963 c 0,-2.07832 0.0215,-2.35483 0.17095,-2.20409 0.25974,0.2619 3.57622,4.17197 3.55522,4.19154 -0.0101,0.009 -0.70695,0.0768 -1.54856,0.14969 -0.84162,0.0729 -1.67587,0.1566 -1.85391,0.18595 l -0.3237,0.0533 z m 11.93899,-2.74639 c 0.27734,-0.27734 0.22512,-0.80864 -0.11976,-1.2185 -0.34655,-0.41185 -0.80182,-0.47846 -0.98107,-0.14354 -0.17057,0.31871 0.0556,1.01732 0.42292,1.30624 0.36788,0.28937 0.43852,0.29519 0.67791,0.0558 z m -2.3026,-1.47275 c 0.33579,-0.59534 -0.48048,-1.70411 -1.03578,-1.40692 -0.46261,0.24758 -0.19672,1.3488 0.39469,1.63466 0.32506,0.15712 0.44881,0.11316 0.64109,-0.22774 z m -57.308262,17.79776 c -0.531442,-0.21111 -2.541044,-1.31695 -9.652084,-5.31135 -9.658104,-5.42513 -15.315045,-8.57924 -18.951042,-10.56641 -1.627774,-0.88962 -11.263568,-6.31514 -11.66789,-6.56971 -0.855722,-0.53877 -0.926902,-0.72438 -0.926902,-2.41701 0,-1.48788 0.0053,-1.51808 0.323698,-1.85742 0.268622,-0.28625 5.699678,-3.50185 16.332031,-9.66981 0.971094,-0.56334 3.381172,-1.96329 5.35573,-3.11099 4.756006,-2.7644 4.608035,-2.69273 5.409202,-2.61978 l 0.652777,0.0594 -0.03777,-0.66325 c -0.02552,-0.44801 0.364489,-3.05058 1.201833,-8.02001 0.681783,-4.04623 1.640822,-9.89927 2.131197,-13.00677 1.165656,-7.38674 1.153843,-7.32843 1.568629,-7.74322 0.218297,-0.21829 0.504937,-0.35975 0.812605,-0.40102 0.422586,-0.0567 0.689177,0.044 2.40203,0.90746 1.976857,0.9965 7.810859,4.09262 14.580329,7.73783 4.02379,2.16672 5.17575,2.79934 13.713026,7.53077 2.913283,1.61457 6.698503,3.69721 8.411593,4.6281 1.7131,0.93089 3.28892,1.84547 3.50183,2.0324 0.33893,0.29759 0.3871,0.41177 0.3871,0.91773 0,0.31783 -0.58601,3.71558 -1.30224,7.55057 -0.71623,3.83499 -1.51508,8.11154 -1.77521,9.50344 -0.26013,1.3919 -0.54442,2.95448 -0.63175,3.4724 -0.0873,0.51791 -0.48366,2.68963 -0.88075,4.82604 -0.783,4.21269 -0.80429,4.27255 -1.61483,4.54005 -0.22134,0.073 -0.50831,0.10513 -0.63771,0.0713 -0.2287,-0.0598 -0.22952,-0.0528 -0.0292,0.2529 0.1531,0.23365 0.21943,0.63982 0.25821,1.58126 l 0.0522,1.26684 -0.40634,0.38133 c -0.40077,0.37609 -3.71774,2.32351 -3.95757,2.32351 -0.0679,0 -0.15744,-0.10699 -0.19895,-0.23777 -0.0415,-0.13077 -0.257393,-0.4761 -0.479753,-0.76741 l -0.40428,-0.52963 0.50124,-0.29807 c 0.27569,-0.16393 1.269293,-0.75113 2.208023,-1.30489 0.93872,-0.55375 1.83919,-1.14093 2.00104,-1.30484 0.46922,-0.47521 0.0903,-0.2788 -2.54172,1.31731 -1.685433,1.02209 -2.545093,1.47739 -2.789503,1.47739 -0.19431,0 -0.84274,0.15678 -1.440956,0.34841 -1.50355,0.48163 -2.31557,0.59241 -4.2924,0.58558 -1.8755,-0.006 -2.84343,-0.11693 -2.3836,-0.272 0.14567,-0.0491 0.26485,-0.12941 0.26485,-0.17843 0,-0.049 -0.50514,-0.36813 -1.12252,-0.70917 -0.79006,-0.43641 -1.16483,-0.58528 -1.26537,-0.50263 -0.0786,0.0646 -0.53389,0.32923 -1.01184,0.5881 l -0.86899,0.47067 0.63357,0.36332 c 0.34847,0.19982 0.67331,0.36381 0.72186,0.36442 0.18825,0.002 0.076,0.22456 -0.14964,0.29617 -0.158,0.0501 -0.48641,-0.0635 -0.97766,-0.33817 l -0.73975,-0.41369 -0.84447,0.50071 c -0.46446,0.27539 -0.87737,0.5336 -0.91758,0.57381 -0.0402,0.0402 0.25419,0.23833 0.65422,0.44026 0.63947,0.3228 0.70845,0.38997 0.57103,0.55601 -0.11618,0.14038 -0.15654,0.69784 -0.15722,2.17191 l -9.2e-4,1.98306 -3.17721,1.89169 c -5.24064,3.12024 -5.28,3.13313 -6.961735,2.27996 -0.888368,-0.45068 -11.858254,-6.61836 -19.815988,-11.14129 -2.104036,-1.19587 -4.805443,-2.72059 -6.003125,-3.38826 -1.197682,-0.66768 -4.375807,-2.45965 -7.0625,-3.98216 -2.686693,-1.5225 -5.227293,-2.95799 -5.645778,-3.18996 -0.418486,-0.23197 -1.023838,-0.67274 -1.345227,-0.97948 -0.32139,-0.30675 -0.602858,-0.53922 -0.625484,-0.51659 -0.09573,0.0957 0.20221,0.62662 0.512715,0.91356 0.33483,0.30942 2.826916,1.74601 10.281899,5.92711 2.168776,1.21635 5.744167,3.23025 7.945313,4.47535 2.201146,1.24509 6.756458,3.81314 10.122916,5.70678 3.366459,1.89365 7.286146,4.10695 8.710417,4.91845 3.269807,1.86302 3.617687,2.02474 4.358527,2.02618 0.79795,0.002 1.50611,-0.35209 5.51334,-2.75329 1.80411,-1.08105 3.29141,-1.94968 3.30511,-1.93029 0.0873,0.12357 0.37732,2.16898 0.31663,2.23314 -0.17829,0.18848 -7.76554,4.63102 -8.13788,4.76495 -0.57559,0.20703 -1.26146,0.18412 -1.88333,-0.0629 z m -8.834152,-14.04836 c 4.560181,-2.68633 4.651325,-2.74363 4.692019,-2.94992 0.04057,-0.20563 -0.260218,-0.38887 -5.451097,-3.32073 -1.812709,-1.02384 -4.31104,-2.43577 -5.551847,-3.13763 -1.240808,-0.70186 -2.368504,-1.27611 -2.505992,-1.27611 -0.137487,0 -0.45984,0.10706 -0.716339,0.23792 -0.826381,0.42159 -7.345956,4.25536 -7.524223,4.42454 -0.151339,0.14363 -0.151339,0.18389 0,0.33008 0.0948,0.0916 1.734937,1.05387 3.644755,2.13844 1.909818,1.08457 4.823099,2.75241 6.473958,3.7063 1.886523,1.09005 3.130505,1.73864 3.348662,1.74593 0.249424,0.008 1.259691,-0.52601 3.590104,-1.89882 z m 17.616842,0.8977 c 0.47816,-0.29803 0.86939,-0.55839 0.86939,-0.57858 0,-0.0202 -0.468,-0.29714 -1.04001,-0.61545 l -1.04002,-0.57875 -0.8501,0.49836 c -0.46756,0.27409 -0.85058,0.53622 -0.85117,0.58251 -8.6e-4,0.0683 1.8508,1.20474 1.99967,1.22729 0.0236,0.004 0.43407,-0.23735 0.91224,-0.53538 z m 7.91255,-1.32692 0.98118,-0.5689 -0.51034,-0.29344 c -0.2807,-0.16139 -0.78058,-0.43807 -1.11086,-0.61484 l -0.6005,-0.32139 -1.02394,0.58711 c -0.70799,0.40596 -0.97706,0.61764 -0.87202,0.68603 0.44147,0.28741 1.93617,1.08747 2.03759,1.09064 0.0647,0.002 0.55924,-0.25232 1.09889,-0.56521 z m -5.52835,-0.0859 c 0.52639,-0.29823 0.95707,-0.57814 0.95707,-0.62202 0,-0.0439 -0.15891,-0.17364 -0.35313,-0.28837 -0.19967,-0.11795 -0.35312,-0.30801 -0.35312,-0.43736 0,-0.29958 0.0484,-0.29159 0.71375,0.11779 l 0.56322,0.34656 1.06878,-0.596 1.06877,-0.596 -1.08929,-0.62529 -1.08929,-0.62528 -0.51509,0.28619 c -0.2833,0.1574 -0.5349,0.28618 -0.55912,0.28618 -0.16712,0 0.004,-0.60861 0.21172,-0.75432 0.22573,-0.15811 0.23264,-0.188 0.0589,-0.25468 -0.10829,-0.0416 -0.1969,-0.19791 -0.1969,-0.34746 v -0.27189 l 0.44692,0.2448 0.44691,0.24479 0.84788,-0.49518 c 0.46633,-0.27236 0.84788,-0.51596 0.84788,-0.54135 0,-0.0254 -0.47442,-0.31361 -1.05426,-0.64048 -0.67907,-0.3828 -1.12619,-0.5667 -1.25638,-0.51675 -0.1573,0.0604 -0.18453,0.0318 -0.12282,-0.12906 0.0436,-0.11365 0.0793,-0.31136 0.0793,-0.43936 0,-0.12801 0.0515,-0.20093 0.11436,-0.16206 0.0629,0.0389 0.4999,-0.141 0.9711,-0.39973 1.45954,-0.80139 1.4478,-0.6979 0.1602,-1.4112 -0.62037,-0.34367 -1.12764,-0.659 -1.12727,-0.70072 3.8e-4,-0.0417 0.0536,-0.39368 0.11821,-0.78212 0.0647,-0.38843 0.12157,-1.14324 0.1265,-1.67734 0.005,-0.5341 0.0242,-0.97109 0.0427,-0.97109 0.0711,0 13.447952,7.69263 14.984522,8.61715 0.28142,0.16933 0.38231,0.18874 0.38164,0.0734 -5e-4,-0.0862 -0.22561,-0.28596 -0.50026,-0.44389 -0.27464,-0.15794 -1.82357,-1.05095 -3.442063,-1.98447 -1.61849,-0.93353 -4.829129,-2.77728 -7.134749,-4.09724 l -4.19204,-2.39991 -0.0749,-0.54637 c -0.0412,-0.3005 -0.0749,-0.71998 -0.0749,-0.93218 v -0.38581 l 5.56171,3.15092 c 3.05895,1.73301 6.672702,3.79137 8.030552,4.57413 1.35786,0.78276 2.48977,1.40226 2.51537,1.37666 0.061,-0.061 3.37341,-18.54247 4.49178,-25.06194 0.19908,-1.16052 0.33872,-2.17062 0.3103,-2.24467 -0.0284,-0.0741 -1.26204,-0.78736 -2.74137,-1.58511 -1.47933,-0.79775 -4.51712,-2.443 -6.750643,-3.6561 -6.579179,-3.5734 -25.536112,-13.81167 -29.061015,-15.69531 -0.931608,-0.49783 -1.708599,-0.89038 -1.726647,-0.87233 -0.01805,0.018 -0.676174,3.79348 -1.462502,8.38985 -0.786328,4.59637 -1.797032,10.46988 -2.246009,13.05224 -0.448977,2.58237 -0.816322,4.76458 -0.816322,4.84937 0,0.0848 1.099102,0.77493 2.442448,1.53364 1.343346,0.75872 5.011432,2.84483 8.151302,4.63581 3.139866,1.79098 6.013426,3.42801 6.385676,3.63786 l 0.67682,0.38153 v 0.87914 0.87914 l -0.50026,-0.28737 c -11.01085,-6.32505 -17.849225,-10.1986 -18.004624,-10.1986 -0.204957,0 -0.07492,0.20588 0.212852,0.337 0.168234,0.0766 3.280148,1.84147 6.915364,3.92182 3.635217,2.08035 7.668858,4.38704 8.963648,5.12597 l 2.35417,1.34352 0.006,1.66892 c 0.004,0.9179 0.0455,1.81948 0.0933,2.0035 l 0.0868,0.33459 -0.95046,-0.50643 -0.95047,-0.50643 -0.37873,0.20572 c -0.2083,0.11314 -0.66218,0.3814 -1.00862,0.59612 l -0.62989,0.39041 1.033,0.55853 1.033,0.55853 0.90565,-0.48255 c 0.49811,-0.26541 0.9391,-0.48255 0.97997,-0.48255 0.0409,0 0.0743,0.12853 0.0743,0.28563 0,0.22285 -0.14229,0.36704 -0.64739,0.65603 -0.35607,0.20372 -0.6474,0.38911 -0.6474,0.41198 0,0.0229 0.29133,0.20826 0.6474,0.41198 0.43253,0.24747 0.64739,0.44567 0.64739,0.59718 0,0.12473 -0.0344,0.22678 -0.0765,0.22678 -0.0421,0 -0.444,-0.21188 -0.89315,-0.47083 -0.44916,-0.25896 -0.84643,-0.47084 -0.88282,-0.47084 -0.10804,0 -1.79356,0.9953 -1.79404,1.05938 -2.5e-4,0.0324 0.43159,0.30439 0.95964,0.60448 l 0.96009,0.54563 0.86339,-0.51045 0.86339,-0.51045 v 0.34241 c 0,0.28136 -0.0944,0.39776 -0.52969,0.65283 -0.29132,0.17073 -0.52892,0.34511 -0.52799,0.38751 9.3e-4,0.0424 0.26578,0.22275 0.58854,0.40076 0.46524,0.2566 0.58685,0.38568 0.58685,0.62293 v 0.29927 l -0.55912,-0.32036 c -0.30751,-0.1762 -0.70002,-0.41701 -0.87225,-0.53514 l -0.31313,-0.21479 -0.9228,0.54333 c -0.50754,0.29883 -0.9353,0.55432 -0.95057,0.56776 -0.0153,0.0134 0.42193,0.27484 0.97156,0.58089 l 0.99934,0.55646 0.74651,-0.41747 c 0.86576,-0.48416 0.90046,-0.49161 0.90046,-0.19325 0,0.14148 -0.19655,0.33942 -0.53254,0.53632 -0.29289,0.17165 -0.50117,0.36283 -0.46284,0.42485 0.0383,0.062 0.27797,0.21902 0.53253,0.34889 0.35614,0.18168 0.46285,0.30541 0.46285,0.53664 v 0.30052 l -0.67682,-0.38044 c -0.37226,-0.20923 -0.74201,-0.43063 -0.82168,-0.49199 -0.0994,-0.0765 -0.44454,0.0641 -1.09889,0.44775 l -0.95403,0.5593 0.98118,0.5689 c 0.53965,0.31289 1.02241,0.57004 1.07281,0.57144 0.0504,0.001 0.40794,-0.15712 0.79454,-0.35227 l 0.70289,-0.35482 v 0.29787 c 0,0.22453 -0.10144,0.34624 -0.41198,0.49433 -0.22659,0.10805 -0.41193,0.22638 -0.41186,0.26294 7e-5,0.0366 0.26783,0.21684 0.59502,0.40061 l 0.59491,0.33413 -0.0642,-2.0409 c -0.12276,-3.90287 -0.19731,-8.80913 -0.13386,-8.80913 0.0351,0 0.32325,0.15961 0.6403,0.3547 1.16245,0.71526 2.89692,1.10307 3.78228,0.84568 0.37454,-0.10889 0.3333,-0.12074 -0.45384,-0.13039 -1.09474,-0.0134 -2.09642,-0.27062 -3.09721,-0.79527 -1.29044,-0.67649 -1.21578,-0.43807 -1.18562,-3.78649 0.0219,-2.42567 -0.0124,-3.14099 -0.20817,-4.34782 -0.31348,-1.93245 -0.30896,-2.72523 0.0179,-3.14077 0.18478,-0.23491 0.32826,-0.30612 0.53652,-0.26631 0.22658,0.0433 0.2682,0.0156 0.20499,-0.13663 -0.3484,-0.83904 -0.35249,-2.13104 -0.008,-2.65618 0.11146,-0.17011 0.43908,-0.42416 0.72804,-0.56454 0.47413,-0.23036 0.57406,-0.24069 1.02449,-0.10589 0.27452,0.0822 0.63729,0.14565 0.80616,0.14112 0.3181,-0.009 0.92889,0.491 0.92889,0.7597 0,0.0804 -0.0746,0.20798 -0.1657,0.28362 -0.11578,0.0961 -0.17783,0.48161 -0.20599,1.27977 -0.0329,0.93183 -0.0862,1.20732 -0.28969,1.49539 -0.13717,0.19422 -0.28548,0.4694 -0.32958,0.61153 -0.0703,0.22653 -0.025,0.2693 0.36711,0.34678 0.24601,0.0486 1.05643,0.0912 1.80094,0.0947 1.24655,0.006 1.40599,-0.0194 2.0153,-0.31859 0.36391,-0.17872 0.91031,-0.54381 1.21421,-0.81132 l 0.55256,-0.48638 -0.62567,-0.34519 c -0.34412,-0.18986 -1.40696,-0.7416 -2.36187,-1.22609 -0.95765,-0.48589 -1.7362,-0.95291 -1.7362,-1.04149 0,-0.33959 -0.61123,-0.88723 -1.1384,-1.01998 -0.48848,-0.123 -0.52138,-0.15512 -0.45097,-0.44021 0.0418,-0.16914 0.2046,-0.44285 0.36183,-0.60824 0.50311,-0.52923 0.31391,-0.99978 -0.22998,-0.57196 l -0.3081,0.24236 v -0.27008 c 0,-0.31369 0.91445,-7.56321 1.00363,-7.95652 0.0599,-0.2642 1.25277,-0.97174 1.6383,-0.97174 0.31285,0 8.23442,4.45803 8.56252,4.81874 0.66746,0.7338 0.68384,0.46372 -0.50246,8.28647 -0.1754,1.15659 -0.51339,1.49878 -1.99764,2.02245 -0.42474,0.14986 -0.44288,0.14538 -0.49398,-0.12192 -0.0468,-0.24476 0.002,-0.28684 0.41602,-0.35674 0.28808,-0.0487 0.6322,-0.22875 0.89184,-0.46669 0.35143,-0.32206 0.42277,-0.46763 0.42277,-0.86264 0,-0.57183 -0.1059,-0.70458 -0.41038,-0.51443 -0.12566,0.0785 -0.34334,0.14268 -0.48373,0.14268 -0.23983,0 -0.24348,-0.013 -0.0605,-0.21526 0.10714,-0.11839 0.19481,-0.2773 0.19481,-0.35312 0,-0.28666 -0.34069,-0.11883 -0.82469,0.40624 l -0.50155,0.54411 0.0784,0.9399 0.0784,0.9399 -0.41892,0.51124 c -0.48057,0.58647 -2.36029,2.12477 -3.4436,2.81813 -0.4046,0.25896 -0.77538,0.57677 -0.82396,0.70625 -0.0486,0.12948 -0.0735,1.78618 -0.0554,3.68155 0.0238,2.49046 -0.0148,3.8288 -0.13908,4.82604 -0.0946,0.75895 -0.20572,1.96257 -0.24696,2.67471 -0.0412,0.71213 -0.15081,2.11107 -0.24348,3.10874 -0.0927,0.99768 -0.16849,2.17409 -0.16849,2.61425 0,0.72106 -0.0319,0.82989 -0.32245,1.09929 -0.48104,0.44604 -1.08294,0.70631 -1.2494,0.54025 -0.091,-0.0907 -0.15778,-1.15875 -0.20509,-3.27772 -0.0603,-2.70025 -0.11568,-3.40024 -0.39312,-4.96763 -0.17762,-1.00346 -0.35791,-1.86151 -0.40066,-1.90677 -0.0427,-0.0453 -0.0853,0.90818 -0.0946,2.11875 -0.009,1.21058 -0.0631,2.79813 -0.11952,3.5279 l -0.10265,1.32685 0.44322,0.29331 c 0.26338,0.17429 0.44322,0.38745 0.44322,0.52532 0,0.23063 -0.002,0.23062 -0.38255,-0.001 -0.47932,-0.29225 -0.55912,-0.29223 -0.55912,9e-5 0,0.15337 -0.22387,0.38286 -0.64862,0.66488 -0.6367,0.42273 -0.64398,0.43392 -0.39565,0.60785 0.18062,0.12651 0.30723,0.14335 0.44264,0.0589 0.10431,-0.0651 0.49422,-0.29016 0.86648,-0.50019 l 0.67682,-0.38186 v 0.30529 c 0,0.23583 -0.12413,0.38255 -0.54557,0.64487 l -0.54558,0.33957 0.98698,0.59386 c 0.54284,0.32663 1.01978,0.59767 1.05986,0.60231 0.0401,0.005 0.50356,-0.23556 1.02995,-0.53379 z m -2.51578,-4.51996 c -0.0405,-0.0655 -0.0401,-0.2245 7.6e-4,-0.35335 0.0604,-0.19019 0.11716,-0.21136 0.30187,-0.11251 0.28924,0.15479 0.28899,0.30771 -7.6e-4,0.46278 -0.15335,0.0821 -0.25243,0.0831 -0.30187,0.003 z m -5.47299,-28.73756 c -3.40881,-1.87032 -7.830118,-4.24815 -8.901402,-4.78727 l -0.720676,-0.36267 0.113091,-0.62385 c 0.0622,-0.34312 0.121661,-0.63173 0.132135,-0.64136 0.01047,-0.01 0.760606,0.39035 1.66696,0.88885 0.906354,0.49851 3.131042,1.7224 4.943752,2.71976 1.81271,0.99736 3.90497,2.13693 4.64948,2.53237 l 1.35364,0.71897 -0.0241,0.51079 c -0.0132,0.28094 -0.0662,0.5514 -0.11771,0.60104 -0.0515,0.0496 -1.44432,-0.65085 -3.09518,-1.55663 z m -5.356662,0.88448 c -1.305397,-0.68883 -4.480276,-2.43425 -4.600599,-2.52922 -0.119691,-0.0945 -0.04952,-1.08274 0.08654,-1.2188 0.06409,-0.0641 5.031704,2.59918 5.265587,2.82301 0.117429,0.11238 0.139751,0.30377 0.08107,0.69508 -0.04454,0.297 -0.11788,0.54 -0.162983,0.54 -0.0451,0 -0.346428,-0.13953 -0.669611,-0.31007 z m 5.297812,-4.08897 c -1.52796,-0.85016 -2.9314,-1.61128 -6.964733,-3.77716 l -2.138691,-1.14846 0.0594,-0.42856 c 0.1043,-0.75245 0.105828,-0.75356 0.65498,-0.47545 0.483099,0.24466 5.579911,3.00726 8.724821,4.72908 l 1.51287,0.82828 -0.077,0.48175 c -0.0423,0.26496 -0.11397,0.51779 -0.15922,0.56184 -0.0452,0.0441 -0.77085,-0.30304 -1.61246,-0.77132 z m 2.35417,-1.53707 c -1.29479,-0.73286 -4.28753,-2.39202 -6.650524,-3.68704 l -4.296354,-2.35457 0.0272,-0.62019 c 0.01496,-0.34111 0.05229,-0.64529 0.08296,-0.67596 0.03067,-0.0307 2.057727,1.05446 4.504573,2.4114 2.446847,1.35695 5.522987,3.04514 6.835867,3.75154 l 2.38705,1.28437 -0.0686,0.41198 c -0.10774,0.64713 -0.17906,0.82445 -0.32881,0.81745 -0.0766,-0.004 -1.19858,-0.60612 -2.49337,-1.33898 z m -5.923789,-6.83178 c -2.416467,-1.32138 -4.469875,-2.46582 -4.563128,-2.54322 -0.12757,-0.10587 -0.150552,-0.28975 -0.09282,-0.74267 0.0422,-0.33107 0.09381,-0.62179 0.114676,-0.64603 0.03499,-0.0407 5.425801,2.83098 8.073691,4.30078 l 1.13989,0.63273 -0.0702,0.43914 c -0.17336,1.08413 0.26785,1.22226 -4.602089,-1.44073 z m 6.589189,44.70787 c 0.50997,-0.30114 0.90835,-0.5664 0.88528,-0.58947 -0.0871,-0.0871 -2.00711,-1.09947 -2.0852,-1.09947 -0.13702,0 -1.7608,0.96679 -1.7608,1.04836 0,0.0602 1.80419,1.1276 1.98785,1.17605 0.0251,0.007 0.46291,-0.23434 0.97287,-0.53547 z m 12.921,-1.23719 0.8462,-0.48991 -1.08638,-0.58909 -1.08638,-0.5891 -0.61008,0.33002 c -0.33554,0.18151 -0.72998,0.42046 -0.87652,0.531 -0.266,0.20064 -0.26479,0.20188 0.7187,0.74235 0.54183,0.29776 1.04434,0.54436 1.1167,0.54801 0.0724,0.004 0.51234,-0.21382 0.97776,-0.48328 z m -15.57123,-0.24576 c 0.47504,-0.27514 0.86288,-0.52674 0.86186,-0.55911 -0.001,-0.0324 -0.45217,-0.31497 -1.00255,-0.62799 l -1.0007,-0.56913 -0.88627,0.55239 c -0.48745,0.30381 -0.8611,0.57757 -0.83032,0.60834 0.12225,0.12225 1.78917,1.08431 1.88833,1.08985 0.0583,0.003 0.49461,-0.21921 0.96965,-0.49435 z m 17.81021,-1.05937 c 0.48085,-0.27515 0.889789,-0.55323 0.908739,-0.61797 0.019,-0.0647 -0.420589,-0.36002 -0.976759,-0.65617 l -1.01123,-0.53847 -0.98492,0.58714 -0.98492,0.58715 0.96863,0.55691 c 0.53274,0.3063 1.02207,0.56248 1.0874,0.56929 0.0653,0.007 0.5122,-0.21274 0.99306,-0.48788 z m -5.05942,-0.21962 c 0.46216,-0.26646 0.82435,-0.49825 0.80487,-0.5151 -0.0195,-0.0169 -0.52867,-0.30728 -1.13153,-0.64539 -0.97869,-0.54889 -1.11741,-0.59642 -1.2948,-0.44363 -0.10927,0.0941 -0.4767,0.32447 -0.81652,0.51189 -0.33982,0.18741 -0.6169,0.36724 -0.61574,0.39961 0.002,0.0635 2.00641,1.16328 2.13549,1.17189 0.0429,0.003 0.45607,-0.21282 0.91823,-0.47927 z m -15.35576,-0.18248 c 0.48949,-0.30208 0.84845,-0.5899 0.7977,-0.63961 -0.0508,-0.0497 -0.50678,-0.32605 -1.01339,-0.6141 l -0.92111,-0.52372 -0.939811,0.53246 c -0.516896,0.29285 -0.896927,0.57449 -0.844514,0.62585 0.0862,0.0845 1.942445,1.16539 2.004885,1.16748 0.0144,4.8e-4 0.42675,-0.24628 0.91624,-0.54836 z m 17.64894,-1.15754 c 0.51121,-0.29133 0.97989,-0.52969 1.04151,-0.52969 0.25582,0 -0.19225,-0.32424 -1.11467,-0.80662 l -0.97973,-0.51236 -1.0418,0.59016 c -1.02459,0.58041 -1.03722,0.593 -0.7651,0.76227 0.4617,0.28719 1.80276,1.02218 1.8686,1.02411 0.0339,0.001 0.47997,-0.23654 0.99119,-0.52787 z m -14.95867,-0.47428 c 0.56371,-0.32374 0.56859,-0.33152 0.3232,-0.51575 -0.13703,-0.10288 -0.59122,-0.36395 -1.00932,-0.58015 l -0.76019,-0.3931 -0.88724,0.5048 c -0.48798,0.27764 -0.88595,0.53399 -0.88437,0.56966 0.002,0.0357 0.43857,0.31077 0.97109,0.61133 l 0.96823,0.54647 0.35313,-0.20728 c 0.19422,-0.114 0.61068,-0.35519 0.92547,-0.53598 z m -5.294978,0.1109 c 0.494081,-0.29696 0.875038,-0.57505 0.846571,-0.61797 -0.02847,-0.0429 -0.492218,-0.30837 -1.030558,-0.58991 l -0.9788,-0.51188 -0.9097,0.51188 c -0.500335,0.28154 -0.91068,0.53837 -0.911878,0.57074 -0.0023,0.0611 1.883453,1.15727 2.012661,1.16991 0.04036,0.004 0.477623,-0.2358 0.971704,-0.53277 z m 31.51639,-0.29293 c 0.0628,-0.27952 1.14217,-6.09924 2.39861,-12.93272 1.25643,-6.83348 2.39249,-12.98068 2.52458,-13.66045 0.38225,-1.96725 0.32177,-2.24166 -0.63213,-2.86774 -0.62078,-0.40744 -5.38648,-3.09017 -10.485863,-5.90275 -1.61849,-0.89268 -3.922629,-2.16492 -5.120309,-2.82719 -5.2111,-2.88153 -12.76604,-6.97533 -18.12709,-9.82252 -1.132939,-0.6017 -2.77497,-1.47827 -3.648954,-1.94795 -2.286125,-1.22856 -4.241996,-2.19277 -4.364089,-2.15141 -0.05799,0.0196 0.251333,0.22049 0.687395,0.44633 4.179029,2.16441 13.012098,6.89967 19.331898,10.36353 2.0393,1.11773 5.05852,2.77181 6.70938,3.67574 6.961802,3.81192 14.618992,8.1184 15.163002,8.5278 0.67145,0.50533 0.6742,0.56448 0.15209,3.27752 -0.37465,1.94676 -2.68592,14.42111 -3.31385,17.88541 -0.0704,0.38844 -0.33328,1.79211 -0.58417,3.11927 -0.25088,1.32716 -0.56179,3.02216 -0.6909,3.76667 -0.12912,0.7445 -0.2725,1.45958 -0.31862,1.58906 -0.0648,0.18203 -0.0511,0.20528 0.0605,0.10251 0.0794,-0.0731 0.19573,-0.3616 0.25854,-0.64111 z m -13.969892,-0.8739 c 0.49276,-0.29133 0.94738,-0.52969 1.01025,-0.52969 0.29806,0 0.0172,-0.22587 -0.96357,-0.77492 l -1.06886,-0.59836 -1.04537,0.59553 c -0.57496,0.32754 -1.04404,0.62329 -1.04239,0.65722 0.004,0.0833 1.90323,1.15051 2.07661,1.16691 0.0756,0.007 0.54057,-0.22536 1.03333,-0.51669 z m -15.17249,-0.1872 c 0.4825,-0.26481 0.87568,-0.51641 0.87374,-0.55911 -0.002,-0.0427 -0.43872,-0.32567 -0.97062,-0.62881 l -0.967091,-0.55117 -0.668738,0.36764 c -1.33994,0.73664 -1.331694,0.6835 -0.202498,1.30489 0.543397,0.29903 1.003733,0.54467 1.022967,0.54586 0.0192,0.001 0.42974,-0.21449 0.91224,-0.4793 z m -5.039574,-0.16592 c 0.468263,-0.25896 0.850879,-0.49732 0.850258,-0.52969 -0.0016,-0.0859 -9.836814,-5.65 -9.986908,-5.65 -0.0697,0 -0.458725,0.20311 -0.864488,0.45137 -0.405762,0.24825 -0.815379,0.47717 -0.910259,0.50871 -0.161418,0.0537 0.617557,0.51233 6.82303,4.01739 1.262422,0.71306 2.454219,1.3943 2.648438,1.51387 0.426755,0.26272 0.384961,0.27176 1.439929,-0.31165 z m 8.071504,-1.59667 0.33019,-0.19783 -0.92907,-0.54468 c -0.51099,-0.29957 -1.00388,-0.5423 -1.09529,-0.53939 -0.0914,0.003 -0.55525,0.23441 -1.03073,0.51445 l -0.86451,0.50916 0.98222,0.59535 0.98222,0.59535 0.64739,-0.36729 c 0.35607,-0.20201 0.79598,-0.45631 0.97758,-0.56512 z m -5.850349,0.23633 c 0.475787,-0.26264 0.890788,-0.51915 0.922225,-0.57001 0.05105,-0.0826 -1.784509,-1.18892 -1.972626,-1.18892 -0.06692,0 -0.699662,0.36188 -1.597133,0.91344 -0.278406,0.1711 -0.271284,0.17862 0.70625,0.74538 0.54312,0.31489 1.007455,0.57368 1.031855,0.57508 0.0244,10e-4 0.433643,-0.21233 0.909429,-0.47497 z m -2.510694,-1.51751 c 0.500228,-0.28802 0.908984,-0.55287 0.908346,-0.58854 -6.38e-4,-0.0357 -0.472946,-0.31723 -1.049573,-0.62568 l -1.048414,-0.56083 -0.948071,0.55408 -0.94807,0.55408 1.02655,0.61291 c 0.564602,0.3371 1.054265,0.60498 1.088138,0.59529 0.03387,-0.01 0.470866,-0.25329 0.971094,-0.54131 z m 5.037293,0.0823 c 0.5117,-0.27514 0.93085,-0.52674 0.93145,-0.55911 5.9e-4,-0.0324 -0.45469,-0.29479 -1.01174,-0.58316 l -1.012829,-0.5243 -0.735279,0.38122 c -1.30293,0.67554 -1.292437,0.61922 -0.230663,1.23786 0.51306,0.29892 0.976902,0.54446 1.030761,0.54563 0.05386,0.001 0.51659,-0.22299 1.0283,-0.49814 z m 2.35166,-1.33452 c 0.5149,-0.29699 0.93618,-0.55906 0.93618,-0.58237 0,-0.0233 -0.44635,-0.28569 -0.99188,-0.58306 l -0.99187,-0.54067 -0.89146,0.49857 c -0.4903,0.27422 -0.89023,0.52799 -0.88874,0.56394 0.002,0.0511 1.70973,1.13024 1.85667,1.17334 0.0192,0.006 0.4562,-0.23275 0.9711,-0.52975 z m -4.941247,-0.078 c 0.511704,-0.27514 0.931061,-0.52674 0.931906,-0.55911 0.0017,-0.0662 -1.859409,-1.09726 -2.087036,-1.15619 -0.188274,-0.0487 -1.952227,0.92106 -1.853985,1.0193 0.08029,0.0803 1.975633,1.18953 2.039673,1.19371 0.02149,10e-4 0.457738,-0.22256 0.969442,-0.49771 z m -5.261411,-0.0499 c 1.297202,-0.77728 1.29018,-0.65029 0.07238,-1.3092 l -1.083003,-0.58598 -0.899492,0.52955 c -0.494721,0.29125 -0.915628,0.54418 -0.935349,0.56206 -0.03344,0.0303 1.985121,1.22681 2.080355,1.23311 0.0239,0.002 0.368198,-0.19171 0.765104,-0.42954 z m 8.346628,-1.69204 0.32706,-0.19592 -1.03331,-0.61387 -1.033313,-0.61386 -0.969504,0.50869 c -0.533227,0.27978 -0.956711,0.54921 -0.941074,0.59875 0.01564,0.0495 0.478397,0.34579 1.028358,0.65835 l 0.999928,0.56829 0.647395,-0.35725 c 0.35607,-0.19649 0.79457,-0.44542 0.97446,-0.55318 z m -5.751591,0.19163 c 1.041285,-0.5934 1.086561,-0.44662 -0.402035,-1.30336 l -0.765104,-0.44034 -0.729838,0.39365 c -0.89483,0.48263 -1.193063,0.70518 -1.029065,0.7679 0.06844,0.0262 0.518671,0.28227 1.000521,0.56912 0.481849,0.28684 0.906776,0.52419 0.94428,0.52744 0.0375,0.003 0.479063,-0.22823 0.981241,-0.51441 z m -9.906983,-0.31065 c 0.372253,-0.22061 0.676823,-0.43222 0.676823,-0.47025 0,-0.038 -0.450366,-0.32195 -1.000814,-0.63092 l -1.000813,-0.56176 -0.944045,0.55346 -0.944046,0.55345 1.03262,0.61847 c 0.888897,0.53238 1.065384,0.59899 1.268035,0.47856 0.12948,-0.077 0.539987,-0.3204 0.91224,-0.54101 z m 4.742601,0.24808 c 0.437828,-0.25585 0.839748,-0.50888 0.893156,-0.56229 0.08683,-0.0868 -1.675968,-1.20898 -1.899197,-1.20898 -0.10747,0 -1.637224,0.88457 -1.784569,1.03192 -0.08297,0.083 1.656812,1.1673 1.919331,1.19624 0.04138,0.005 0.433451,-0.20104 0.871279,-0.45689 z m 12.809953,-1.16753 1.02277,-0.57333 -1.06187,-0.60375 c -0.58402,-0.33206 -1.08305,-0.60374 -1.10895,-0.60374 -0.0259,0 -0.48131,0.24419 -1.01203,0.54264 -0.59177,0.33279 -0.922796,0.58479 -0.85596,0.65163 0.12925,0.12925 1.82333,1.14542 1.92382,1.15398 0.0382,0.003 0.52969,-0.25209 1.09222,-0.56743 z m -4.284266,-0.75088 c 0.0018,-0.0486 -0.04393,-0.0883 -0.101687,-0.0883 -0.05776,0 -0.532958,-0.24066 -1.056,-0.53479 l -0.950987,-0.5348 -0.95095,0.54851 c -0.523022,0.30167 -0.925073,0.57438 -0.893446,0.60601 0.03163,0.0316 0.489139,0.3089 1.016695,0.61618 l 0.959192,0.55867 0.986927,-0.54161 c 0.542811,-0.29788 0.988426,-0.58133 0.990256,-0.62989 z m -6.010138,0.49009 c 0.458864,-0.26456 0.834298,-0.51992 0.834298,-0.56748 0,-0.0476 -0.442976,-0.33512 -0.984392,-0.63902 l -0.984392,-0.55255 -0.799126,0.46699 c -0.43952,0.25684 -0.847745,0.5156 -0.907168,0.57502 -0.105501,0.1055 1.579826,1.18028 1.869686,1.19235 0.07524,0.003 0.51223,-0.21076 0.971094,-0.47531 z M 58.7246,54.388722 c -0.08334,-0.0766 -0.549999,-0.35561 -1.03702,-0.62004 l -0.885492,-0.4808 -0.919442,0.53291 c -0.505693,0.29309 -0.886062,0.56628 -0.845263,0.60708 0.0408,0.0408 0.527301,0.3207 1.081117,0.62201 l 1.006938,0.54784 0.875344,-0.53488 c 0.693956,-0.42403 0.843945,-0.56372 0.723818,-0.67412 z m 4.335502,0.74604 c 0.477785,-0.27184 0.867203,-0.52344 0.865373,-0.55912 -0.0018,-0.0357 -0.460197,-0.31568 -1.018592,-0.62224 l -1.015265,-0.55739 -0.861932,0.4758 c -0.474062,0.26169 -0.889819,0.52092 -0.923903,0.57607 -0.06762,0.10942 1.662471,1.16618 1.924372,1.17543 0.08869,0.003 0.552163,-0.21671 1.029947,-0.48855 z m 13.083136,-1.47783 c 0.21161,-0.1058 0.36943,-0.23829 0.35072,-0.29442 -0.0187,-0.0561 -0.48317,-0.34213 -1.03214,-0.63555 l -0.99812,-0.53348 -0.968384,0.56693 c -0.532612,0.31182 -0.929877,0.60459 -0.882813,0.6506 0.04707,0.046 0.504436,0.32183 1.01638,0.61292 l 0.930808,0.52926 0.5994,-0.35195 c 0.329669,-0.19356 0.772539,-0.4385 0.984149,-0.54431 z m -5.658868,0.23066 0.964423,-0.55924 -0.994049,-0.55644 c -0.546727,-0.30604 -1.06017,-0.55574 -1.140985,-0.55489 -0.217494,0.002 -1.884906,0.94815 -1.807655,1.0254 0.08638,0.0864 1.878246,1.18097 1.95499,1.19423 0.03237,0.006 0.492844,-0.24148 1.023276,-0.54906 z m -4.986046,-0.12478 c 0.504355,-0.2819 0.900469,-0.52659 0.880254,-0.54376 -0.167252,-0.14203 -1.999047,-1.12129 -2.097481,-1.12129 -0.06969,0 -0.525835,0.23364 -1.013662,0.5192 l -0.886958,0.51921 0.803589,0.46411 c 1.190253,0.68742 1.268883,0.72866 1.335836,0.70072 0.03378,-0.0141 0.474067,-0.25628 0.978422,-0.53819 z m -5.06044,-0.12204 0.923144,-0.51688 -0.981999,-0.56937 c -0.540099,-0.31315 -1.021711,-0.57052 -1.070249,-0.57192 -0.129832,-0.004 -1.85411,0.97364 -1.852937,1.05032 0.0013,0.0821 1.919921,1.18585 2.000042,1.15062 0.03237,-0.0142 0.474269,-0.25848 0.981999,-0.54277 z m -5.872794,0.34987 c 0.03677,-0.0595 0.41868,-0.30492 0.848695,-0.5454 l 0.781845,-0.43723 -0.459195,-0.27838 c -0.252558,-0.15311 -0.725762,-0.41847 -1.051565,-0.58968 l -0.59237,-0.31131 -0.907162,0.51711 c -0.866422,0.49389 -1.084143,0.69229 -0.762526,0.69485 0.08092,6.4e-4 0.544401,0.234 1.029948,0.51858 0.97398,0.57085 1.016088,0.58718 1.11233,0.43146 z m 18.397134,-1.4932 c 0.546854,-0.29809 0.949492,-0.58591 0.894752,-0.6396 -0.05474,-0.0537 -0.515564,-0.33418 -1.024053,-0.6233 l -0.924526,-0.52567 -0.723391,0.40489 c -0.397865,0.22269 -0.842571,0.46424 -0.988235,0.53677 -0.145664,0.0725 -0.264844,0.16414 -0.264844,0.20356 0,0.0814 1.767898,1.15663 1.930248,1.17401 0.05817,0.006 0.553195,-0.23257 1.100049,-0.53066 z m -5.101832,-0.10541 c 0.490552,-0.25896 0.89232,-0.49732 0.892817,-0.52969 0.001,-0.0664 -1.957897,-1.17708 -2.076117,-1.17708 -0.114972,0 -1.803668,0.99157 -1.80418,1.05937 -6.34e-4,0.084 1.923849,1.17528 2.017655,1.14412 0.04285,-0.0142 0.479273,-0.23776 0.969825,-0.49672 z m -5.047271,-0.0883 c 0.48277,-0.27514 0.878327,-0.52745 0.879014,-0.56068 6.88e-4,-0.0332 -0.462226,-0.30629 -1.028698,-0.60681 l -1.029948,-0.54639 -0.914516,0.53587 c -0.502983,0.29473 -0.899458,0.55093 -0.881053,0.56933 0.0954,0.0954 1.926747,1.10732 2.005357,1.10806 0.05064,4.9e-4 0.487074,-0.22424 0.969844,-0.49938 z m -5.083547,-0.18885 c 0.504355,-0.28191 0.900469,-0.52758 0.880254,-0.54594 -0.02022,-0.0184 -0.48699,-0.28207 -1.037276,-0.58602 l -1.000521,-0.55264 -0.969634,0.51003 c -0.533299,0.28052 -0.969683,0.53652 -0.969743,0.56889 -1.43e-4,0.0769 2.038327,1.17777 2.118498,1.14405 0.03378,-0.0142 0.474067,-0.25647 0.978422,-0.53837 z m -5.291492,-0.0171 c 0.426254,-0.25896 0.828933,-0.47083 0.894843,-0.47083 0.335117,0 0.005,-0.24781 -1.086675,-0.81562 l -1.206511,-0.62756 -0.859375,0.4998 c -0.472656,0.27489 -0.835994,0.52318 -0.807417,0.55176 0.08983,0.0898 2.13381,1.31056 2.213877,1.3222 0.04194,0.006 0.425004,-0.20079 0.851258,-0.45975 z m 17.78178,-1.00052 c 0.492761,-0.29133 0.947372,-0.52969 1.010247,-0.52969 0.317213,0 0.0037,-0.22987 -1.00904,-0.73989 l -1.118618,-0.56334 -0.732918,0.41046 c -1.301111,0.72865 -1.29309,0.64016 -0.120164,1.32565 0.569339,0.33274 1.044028,0.60982 1.054863,0.61574 0.01084,0.006 0.422869,-0.2276 0.91563,-0.51893 z M 65.1797,50.904892 c 1.019781,-0.55969 1.025203,-0.534 -0.258434,-1.22458 l -0.832016,-0.44761 -0.904182,0.49912 c -0.497301,0.27451 -0.903366,0.53513 -0.902367,0.57915 0.0019,0.0843 1.755172,1.06892 1.916489,1.07628 0.0516,0.002 0.492834,-0.21471 0.98051,-0.48236 z m -5.117154,-0.0516 c 0.410842,-0.23127 0.791773,-0.46409 0.846513,-0.51739 0.0952,-0.0927 -1.758112,-1.18087 -2.011175,-1.18087 -0.172952,0 -1.626455,0.86144 -1.663803,0.98607 -0.03229,0.10775 1.708466,1.11556 1.945653,1.12645 0.0747,0.003 0.47197,-0.18299 0.882812,-0.41426 z m -5.121253,-0.24676 c 1.113224,-0.62486 1.142437,-0.51167 -0.341395,-1.32276 -0.502017,-0.27441 -0.978735,-0.48184 -1.059375,-0.46097 -0.220837,0.0572 -1.849178,0.97082 -1.85082,1.03848 -0.0012,0.0489 2.071439,1.24432 2.223795,1.28256 0.02682,0.007 0.489325,-0.23506 1.027795,-0.53731 z m 12.687181,-1.0739 0.987158,-0.56408 -1.001389,-0.56055 c -0.550764,-0.3083 -1.062371,-0.54443 -1.136905,-0.52473 -0.230637,0.061 -1.840665,0.97358 -1.841499,1.04382 -6.5e-4,0.0548 1.871049,1.16248 1.973439,1.16791 0.01762,9.3e-4 0.476259,-0.25213 1.019196,-0.56237 z m -4.971444,-0.15563 0.832022,-0.48592 -1.087966,-0.58995 -1.087965,-0.58996 -0.428358,0.25626 c -0.235596,0.14094 -0.653474,0.37042 -0.928617,0.50997 -0.275144,0.13954 -0.499213,0.28288 -0.497933,0.31853 0.0046,0.12781 2.060853,1.16619 2.212182,1.11713 0.08504,-0.0276 0.529023,-0.2688 0.986635,-0.53606 z m -5.220732,-0.11582 0.864267,-0.47928 -1.131407,-0.63739 c -0.622273,-0.35057 -1.189019,-0.6374 -1.259434,-0.6374 -0.154803,0 -1.748811,0.85814 -1.749926,0.94208 -4.34e-4,0.0326 0.453413,0.29744 1.008547,0.58854 0.555134,0.29111 1.034979,0.56901 1.066322,0.61756 0.104961,0.1626 0.332034,0.0881 1.201631,-0.39411 z m 7.769165,-1.34118 0.746973,-0.44365 -0.805827,-0.46986 c -1.293133,-0.75398 -1.294275,-0.75409 -2.215703,-0.21564 -0.441934,0.25826 -0.852447,0.51848 -0.912253,0.57829 -0.06651,0.0665 0.291577,0.33857 0.922102,0.70059 0.907764,0.52119 1.059905,0.57407 1.274287,0.44289 0.133896,-0.0819 0.579585,-0.34861 0.990421,-0.59262 z m -5.337629,0.035 c 0.485564,-0.27157 0.882843,-0.52585 0.882843,-0.56508 0,-0.0392 -0.225117,-0.18577 -0.50026,-0.32564 -0.275144,-0.13987 -0.809129,-0.42533 -1.186633,-0.63435 -0.574197,-0.31793 -0.723112,-0.35709 -0.91117,-0.23965 -0.123639,0.0772 -0.569339,0.32317 -0.990445,0.54657 l -0.765646,0.40619 0.794004,0.43459 c 0.436702,0.23903 0.95291,0.53192 1.147129,0.65088 0.194219,0.11896 0.419322,0.21718 0.50023,0.21827 0.08091,10e-4 0.544384,-0.22021 1.029948,-0.49178 z m 2.339691,-1.38957 c 0.443144,-0.25896 0.852811,-0.47084 0.910371,-0.47084 0.238184,0 0.07775,-0.20464 -0.302638,-0.38603 -0.224012,-0.10683 -0.758197,-0.40741 -1.187078,-0.66796 l -0.779783,-0.47374 -0.927143,0.55788 c -0.509929,0.30683 -0.91491,0.60069 -0.899958,0.65302 0.03767,0.13185 1.982569,1.23345 2.202082,1.24727 0.09814,0.006 0.541003,-0.20064 0.984147,-0.4596 z m 22.167123,-0.30805 c 0.30119,-0.0808 0.85936,-1.06671 0.85936,-1.51796 0,-0.62232 -0.62321,-0.46792 -0.76776,0.19021 -0.10032,0.45675 -0.54068,0.74437 -0.99924,0.65266 -0.31317,-0.0626 -0.35175,-0.039 -0.35175,0.21513 0,0.44832 0.55155,0.64976 1.25939,0.45996 z m 10.21042,-6.35071 c 0.4222,-2.97514 0.4224,-3.19869 0.003,-3.66358 l -0.29774,-0.33027 0.25707,0.51235 0.25707,0.51235 -0.31707,2.2538 c -0.17439,1.23959 -0.34706,2.4127 -0.38371,2.60692 -0.0489,0.25931 -0.0315,0.31966 0.0658,0.22718 0.0729,-0.0693 0.25973,-1.02272 0.41527,-2.11875 z m -1.31746,1.81263 c 0.3666,-0.18848 0.22195,-0.63601 -0.61402,-1.8997 -0.88436,-1.33685 -1.03442,-1.4934 -1.19239,-1.24399 -0.16841,0.26588 -0.13231,0.36617 0.48219,1.3393 0.3237,0.51262 0.58854,0.97393 0.58854,1.02513 0,0.0512 -0.25472,0.0931 -0.56604,0.0931 -0.6489,0 -0.91909,0.16066 -1.0276,0.61104 l -0.0763,0.31676 1.09982,-0.0679 c 0.60491,-0.0373 1.19252,-0.11552 1.30582,-0.17377 z m -4.17317,-0.81473 c 0.11028,-0.20019 0.61102,-1.02513 1.11275,-1.8332 0.50173,-0.80807 0.91224,-1.53333 0.91224,-1.61168 0,-0.0784 -0.15853,-0.23611 -0.3523,-0.35057 l -0.3523,-0.20811 -0.32452,0.55035 c -0.17849,0.30269 -0.68207,1.1319 -1.11906,1.84269 -0.43699,0.71079 -0.79453,1.35991 -0.79453,1.4425 0,0.14616 0.43548,0.51345 0.62344,0.52583 0.0516,0.003 0.18399,-0.15762 0.29428,-0.35781 z m -1.15314,-1.44287 c 0,-0.0627 -0.20322,-0.3836 -0.45161,-0.71318 -0.24838,-0.32958 -0.51171,-0.7121 -0.58517,-0.85004 -0.12061,-0.22649 -0.0982,-0.25787 0.23091,-0.3237 0.20046,-0.0401 0.54137,-0.0729 0.75759,-0.0729 0.3984,0 0.63683,-0.23949 0.63683,-0.63966 0,-0.2074 -0.59244,-0.2418 -1.86809,-0.10847 -0.63524,0.0664 -0.73426,0.11058 -0.7956,0.355 -0.0793,0.3158 0.38438,1.15599 1.23864,2.24462 0.48166,0.6138 0.5281,0.64403 0.67682,0.44064 0.0878,-0.12011 0.15968,-0.26965 0.15968,-0.33232 z m -61.738017,38.92263 c -0.602771,-0.13505 -1.420911,-0.43811 -1.498979,-0.55527 -0.04756,-0.0714 -0.08729,-0.32907 -0.08828,-0.57265 -0.0016,-0.40423 -0.05571,-0.47778 -0.619771,-0.84312 -0.339883,-0.22014 -0.796444,-0.53437 -1.01458,-0.69829 -0.379647,-0.28528 -0.409369,-0.28967 -0.694847,-0.10262 -0.297109,0.19467 -0.30085,0.19254 -0.990734,-0.56562 -0.946993,-1.0407 -1.850148,-2.2355 -1.935727,-2.56081 -0.04417,-0.16789 7.47e-4,-0.34878 0.119062,-0.47952 0.176224,-0.19472 0.155351,-0.2956 -0.288241,-1.39301 -0.444528,-1.09973 -0.509619,-1.19542 -0.923812,-1.35812 -0.516735,-0.20298 -0.53983,-0.2979 -0.666261,-2.73831 l -0.07318,-1.4125 0.47662,-0.26484 c 0.573418,-0.31864 0.607041,-0.32191 0.604739,-0.0589 -0.0035,0.39473 -0.177069,0.53881 -0.464142,0.38517 -0.143257,-0.0767 -0.287338,-0.11253 -0.320179,-0.0797 -0.03284,0.0328 0.111146,0.14807 0.319972,0.25606 0.457229,0.23644 0.612978,0.0953 0.552489,-0.50083 -0.02125,-0.20938 0.01424,-0.39831 0.07885,-0.41985 0.06716,-0.0224 -0.02512,-0.43016 -0.215457,-0.95202 -0.185471,-0.50853 -0.287175,-0.95332 -0.229617,-1.00419 0.598718,-0.52916 3.638725,-2.39132 4.149574,-2.54182 0.468377,-0.13799 0.202378,0.10101 -0.980512,0.88101 l -1.121905,0.73978 0.299251,0.5441 c 0.554159,1.00758 0.554296,1.00768 1.143054,0.80707 0.436086,-0.14859 0.559739,-0.15129 0.801224,-0.0175 0.495105,0.27428 0.579825,0.21262 0.579825,-0.42201 0,-0.32369 0.01943,-0.58854 0.04317,-0.58854 0.02375,0 0.672613,0.41505 1.441927,0.92233 l 1.398753,0.92234 0.03472,0.6308 c 0.03009,0.5468 0.101709,0.71005 0.53775,1.22585 0.276668,0.32727 0.674098,0.84664 0.883177,1.15415 0.20908,0.30751 0.452721,0.55911 0.541426,0.55911 0.319155,0 0.533659,-0.147 0.533659,-0.36571 0,-0.24477 -0.08949,-0.27433 -0.343618,-0.11349 -0.125816,0.0796 -0.366949,-0.14413 -0.976793,-0.90647 -0.728862,-0.91111 -0.80623,-1.05799 -0.774612,-1.47054 0.03458,-0.45124 0.05346,-0.46818 1.219095,-1.09382 l 1.183967,-0.63547 1.211296,1.35903 c 0.666213,0.74747 1.192803,1.3687 1.1702,1.38052 -0.0226,0.0118 -0.610511,0.3072 -1.306462,0.65642 -0.819967,0.41146 -1.265332,0.70148 -1.265271,0.82396 5.1e-5,0.10396 0.164597,0.53331 0.365657,0.95412 0.533347,1.11626 1.164458,2.7776 1.164458,3.06533 0,0.21566 -0.04754,0.23876 -0.353125,0.17165 l -0.353125,-0.0776 v 1.23438 1.23438 l 0.61069,0.54906 0.610691,0.54907 -0.138043,0.51612 c -0.07592,0.28387 -0.30386,0.88697 -0.506525,1.34022 l -0.368481,0.8241 -0.425761,-0.28932 c -0.535038,-0.36356 -0.618329,-0.36141 -1.332292,0.0344 l -0.583896,0.3237 0.03686,0.55918 0.03686,0.55919 -0.529687,-0.0137 c -0.291328,-0.008 -0.635625,-0.0375 -0.765104,-0.0665 z m 0.40729,-4.46767 c 0.506762,-0.29935 0.742796,-0.81234 0.802609,-1.74435 0.07095,-1.10557 -0.126684,-1.99045 -0.700718,-3.13733 -1.424798,-2.84666 -4.160445,-4.06805 -5.168809,-2.30774 -0.780964,1.36334 0.143525,4.34035 1.891293,6.09029 0.422011,0.42253 1.005652,0.88596 1.29698,1.02985 0.628496,0.31041 1.420967,0.33964 1.878645,0.0693 z m -1.618269,-0.29292 c -0.712972,-0.35291 -1.797334,-1.46309 -2.357402,-2.41352 -1.501528,-2.54809 -1.282919,-4.9875 0.446958,-4.9875 0.412711,0 0.404786,-0.0169 0.561414,1.19764 0.206998,1.60513 1.283205,3.42161 2.738141,4.62157 0.387574,0.31965 0.702995,0.66394 0.700937,0.7651 -0.0087,0.42559 -0.782778,1.06468 -1.291049,1.06586 -0.161849,3.8e-4 -0.521398,-0.11174 -0.798999,-0.24915 z m 2.683239,4.33438 c 8.29e-4,-0.45173 0.04081,-0.51704 0.464727,-0.7591 0.571084,-0.32609 0.642037,-0.32694 1.148744,-0.0138 l 0.406228,0.25106 -0.627751,0.34587 c -0.345262,0.19022 -0.799899,0.41884 -1.010302,0.50803 l -0.382552,0.16217 z m 2.644587,-1.28879 c 0.151114,-0.27514 0.369185,-0.81807 0.484602,-1.20651 0.255025,-0.85829 0.452767,-1.09313 1.450513,-1.72258 0.426316,-0.26896 0.920785,-0.58889 1.098819,-0.71096 l 0.323698,-0.22194 v 0.29052 c 0,0.15979 -0.137383,0.71646 -0.305296,1.23704 l -0.305295,0.94651 -1.415512,0.94409 c -0.778532,0.51925 -1.458436,0.94409 -1.510898,0.94409 -0.05246,0 0.02825,-0.22511 0.179369,-0.50026 z m 0.08631,-2.82945 c -0.494077,-0.50343 -0.495341,-0.507 -0.495341,-1.39746 v -0.89274 l 0.441406,-0.072 c 0.242774,-0.0396 0.855841,-0.3384 1.362372,-0.664 0.506531,-0.3256 0.963367,-0.56579 1.015192,-0.53376 0.05182,0.032 0.118464,0.35051 0.148089,0.70774 0.04226,0.50964 0.136705,0.7526 0.438551,1.12821 0.211579,0.26328 0.36613,0.4954 0.343446,0.51583 -0.02268,0.0204 -0.412025,0.26234 -0.865202,0.53759 -0.453177,0.27525 -1.045377,0.65229 -1.316,0.83787 -0.270622,0.18559 -0.511195,0.33742 -0.534606,0.33742 -0.02341,0 -0.265469,-0.22712 -0.537907,-0.50471 z m -0.0026,-3.70336 c -0.142917,-0.43699 -0.491007,-1.29773 -0.773533,-1.91276 -0.282527,-0.61502 -0.493197,-1.15393 -0.468156,-1.19756 0.05334,-0.0929 2.635541,-1.50973 2.751589,-1.50973 0.160085,0 0.754261,1.25514 1.189949,2.51366 0.470133,1.358 0.46594,1.51251 -0.04545,1.67482 -0.134827,0.0428 -0.720649,0.33617 -1.301825,0.65195 -0.581176,0.31579 -1.064793,0.57415 -1.074706,0.57415 -0.0099,0 -0.134954,-0.35754 -0.27787,-0.79453 z m -4.095339,-6.64131 c -0.08956,-0.14491 -2.609071,-1.79975 -2.866941,-1.88304 -0.16091,-0.052 2.773623,-1.7457 3.024578,-1.7457 0.150368,0 2.015968,1.41847 2.368774,1.80105 0.152601,0.16548 0.257728,0.36006 0.233614,0.4324 -0.07365,0.22095 -2.67351,1.53527 -2.760025,1.39529 z m -5.331355,-1.27344 -0.361438,-0.58742 1.407248,-0.94279 c 0.773986,-0.51854 1.463641,-0.9428 1.532566,-0.9428 0.285411,0 0.705578,0.39298 0.705578,0.65993 0,0.2163 -0.146786,0.36257 -0.647396,0.64509 l -0.647396,0.36537 v 0.63616 c 0,0.66816 -0.04829,0.71637 -0.507833,0.50699 -0.221365,-0.10086 -0.363177,-0.088 -0.647089,0.0589 -0.199977,0.10341 -0.388167,0.18802 -0.418198,0.18802 -0.03003,0 -0.217251,-0.26434 -0.416042,-0.58741 z m 123.523026,-0.37014 c -0.58266,-0.32864 -2.72789,-1.53896 -4.76719,-2.6896 -2.03929,-1.15064 -6.59461,-3.69331 -10.12291,-5.65037 -3.52831,-1.95707 -7.05073,-3.9166 -7.82761,-4.35451 -0.77687,-0.43792 -3.73398,-2.08073 -6.57135,-3.6507 -4.61034,-2.55098 -5.15241,-2.88109 -5.09829,-3.10478 0.34984,-1.44606 1.36974,-7.45873 1.31075,-7.72733 -0.13504,-0.61482 -0.50506,-0.90369 -2.64744,-2.06684 l -2.11919,-1.15056 v -11.37853 c 0,-10.6906904 0.0125,-11.3892804 0.20599,-11.5559104 0.31441,-0.2707 2.26969,-1.38963 2.42408,-1.38721 0.0748,10e-4 0.4274,0.16491 0.78347,0.36387 0.88944,0.49698 5.44788,2.9563104 13.06563,7.0490404 3.5283,1.89563 6.82276,3.67708 7.32101,3.95877 1.82672,1.03278 6.52472,3.59055 9.92326,5.40261 0.58265,0.31066 1.95984,1.05189 3.06041,1.64718 1.10058,0.59528 2.54296,1.35914 3.20531,1.69746 1.42948,0.73017 1.75205,1.06402 1.85372,1.91861 0.0405,0.34055 0.0576,7.56113 0.038,16.04574 -0.0314,13.58122 -0.0571,15.45886 -0.21493,15.69659 -0.22762,0.34275 -2.1918,1.54205 -2.51805,1.53747 -0.13494,-0.002 -0.72206,-0.27234 -1.30472,-0.60098 z m 1.82448,-15.70287 c 0,-15.35211 -0.007,-15.84982 -0.22464,-16.27318 -0.12355,-0.24019 -0.37515,-0.57499 -0.55911,-0.74399 -0.18397,-0.169 -1.60573,-0.99706 -3.15948,-1.84014 -1.55375,-0.84307 -3.59525,-1.95648 -4.53667,-2.47423 -0.94142,-0.51776 -4.06658,-2.21172 -6.94479,-3.76436 -2.87822,-1.55265 -9.05726,-4.89367 -13.73121,-7.4245 -9.77539,-5.2931304 -9.6467,-5.2257704 -9.8926,-5.1778004 -0.21292,0.0415 -0.12802,0.0884 13.50579,7.4536004 19.31359,10.43354 23.95468,12.96837 24.44341,13.35028 0.18381,0.14363 0.4531,0.45576 0.59844,0.69362 l 0.26424,0.43247 6e-4,15.80235 c 4e-4,10.45602 0.0404,15.80234 0.11831,15.80234 0.0779,0 0.11771,-5.35729 0.11771,-15.83646 z m -11.77083,1.83573 c 0,-0.52248 -0.3892,-0.86187 -1.94219,-1.6936 -4.46258,-2.39002 -11.08687,-6.01502 -13.74091,-7.5194 -1.0188,-0.57749 -1.90603,-1.01682 -1.97162,-0.97628 -0.16556,0.10232 -0.14925,0.56507 0.0279,0.79103 0.13907,0.17738 3.37435,2.00322 7.15078,4.03555 2.19333,1.18036 8.69081,4.79946 9.53438,5.31065 0.80253,0.48632 0.94167,0.49401 0.94167,0.0521 z m -6.18962,-0.31742 c 0.0408,-0.10623 -0.001,-0.30794 -0.093,-0.44825 -0.0919,-0.14031 -2.06622,-1.29219 -4.38731,-2.55973 -4.96634,-2.71211 -5.66322,-3.06879 -5.81389,-2.97567 -0.18493,0.1143 -0.12853,0.59425 0.093,0.79103 0.35853,0.31852 9.75374,5.38054 9.99261,5.38389 0.074,10e-4 0.1679,-0.085 0.20866,-0.19127 z m 9.0486,-3.7502 c -0.0137,-0.19415 -0.0931,-0.39479 -0.17657,-0.44586 -0.0834,-0.0511 -1.58184,-0.88237 -3.32981,-1.84734 -9.49871,-5.24379 -12.36937,-6.78808 -12.46237,-6.7042 -0.18557,0.16735 -0.1112,0.72719 0.11461,0.86273 1.19073,0.71476 8.86972,4.97176 11.64151,6.45371 1.94219,1.0384 3.5836,1.93617 3.64758,1.99504 0.064,0.0589 0.22289,0.0917 0.35313,0.073 0.1839,-0.0264 0.23123,-0.11289 0.21192,-0.38706 z m -7.23767,-1.01148 c 0.0195,-0.16684 -0.0335,-0.35883 -0.11771,-0.42664 -0.35849,-0.28873 -12.83405,-7.09561 -13.00474,-7.09561 -0.12127,0 -0.009,0.83583 0.13143,0.97597 0.17583,0.17584 2.5748,1.50159 7.18793,3.97232 1.48901,0.79749 3.31644,1.78315 4.06094,2.19035 0.74451,0.40721 1.4331,0.72836 1.53021,0.71366 0.0971,-0.0147 0.19248,-0.16322 0.21194,-0.33005 z m -13.00605,-1.3257 c 0.15185,-0.39572 -0.25723,-0.74484 -1.98077,-1.69043 -0.96973,-0.53203 -1.84935,-0.96902 -1.95472,-0.9711 -0.10537,-0.002 -0.25882,0.0773 -0.341,0.17627 -0.31186,0.37577 0.0396,0.68559 1.90242,1.67705 1.7983,0.95713 2.257,1.11328 2.37407,0.80821 z m 17.71438,-1.85243 c 0.0195,-0.16683 -0.0335,-0.35821 -0.1177,-0.42527 -0.18675,-0.14873 -4.95563,-2.7955 -6.74476,-3.74339 -0.71213,-0.37729 -2.69846,-1.45342 -4.41406,-2.3914 -4.84449,-2.64866 -5.39886,-2.93972 -5.46785,-2.87072 -0.0354,0.0354 -0.0644,0.21182 -0.0644,0.39195 0,0.46043 0.25394,0.62787 4.17864,2.75531 1.87745,1.0177 4.57886,2.49055 6.00313,3.27301 4.5196,2.48294 6.23354,3.37657 6.4151,3.34478 0.0971,-0.017 0.19249,-0.16743 0.21194,-0.33427 z m 4.21851,-0.28345 c 0.23502,-0.61245 -0.0916,-0.8382 -5.19555,-3.59132 -1.23005,-0.6635 -2.63372,-1.43201 -3.11927,-1.70781 -0.48555,-0.27579 -3.42531,-1.86485 -6.53281,-3.53124 -3.1075,-1.66639 -5.71846,-3.0842 -5.80213,-3.15069 -0.22189,-0.17633 -0.40389,0.055 -0.35734,0.45416 0.0454,0.38937 -0.1898,0.24603 5.10009,3.10792 2.07167,1.1208 4.98495,2.71039 6.47396,3.53243 1.48901,0.82204 3.66073,2.01623 4.82604,2.65376 1.16531,0.63752 2.62195,1.43842 3.23698,1.77977 0.61503,0.34135 1.15962,0.62271 1.2102,0.62524 0.0506,0.003 0.12251,-0.075 0.15983,-0.17222 z m -18.67442,-4.47112 c 0.24511,-0.29534 0.0391,-0.72236 -0.49833,-1.03312 -0.27551,-0.1593 -1.0173,-0.56631 -1.64841,-0.90446 -0.99771,-0.53457 -1.15753,-0.58866 -1.22439,-0.41441 -0.18427,0.48019 0.11399,0.78746 1.60677,1.65533 0.80924,0.47048 1.50459,0.85908 1.54522,0.86355 0.0406,0.004 0.13924,-0.0706 0.21914,-0.16689 z m 14.71369,-1.19491 c -0.11594,-0.20116 -0.77432,-0.62422 -1.94107,-1.24731 -3.00676,-1.60571 -6.65756,-3.5787 -10.87699,-5.87823 -2.22744,-1.21393 -4.09459,-2.17952 -4.14922,-2.14576 -0.0546,0.0338 -0.0993,0.21356 -0.0993,0.39955 0,0.41923 0.11257,0.49964 2.47187,1.76555 1.00347,0.53842 3.39913,1.8454 5.32369,2.90439 1.92456,1.059 4.75839,2.58465 6.29739,3.39034 2.47471,1.29555 2.81848,1.44472 2.97364,1.29038 0.15545,-0.15463 0.15545,-0.2092 0,-0.47891 z m 4.0032,-0.93483 c 0,-0.32767 -0.54401,-0.69413 -2.88385,-1.94268 -1.35954,-0.72544 -3.4518,-1.86095 -4.64948,-2.52335 -1.19769,-0.6624 -4.5612,-2.50034 -7.47448,-4.08431 -2.91328,-1.58397 -7.16645,-3.9028 -9.45149,-5.15296 -2.97715,-1.62882 -4.19068,-2.23695 -4.28185,-2.14578 -0.19985,0.19985 -0.0215,0.65758 0.33917,0.8704 0.48995,0.28912 3.04682,1.69459 8.64493,4.75199 2.76131,1.50809 6.25724,3.42771 7.76875,4.26584 1.51151,0.83813 3.72812,2.05667 4.9258,2.70786 1.19768,0.6512 3.21049,1.76417 4.47292,2.47328 2.01748,1.13322 2.31312,1.26697 2.44244,1.10501 0.0809,-0.10135 0.14714,-0.24774 0.14714,-0.3253 z m 4.75793,-1.96105 c 0.21975,-0.62855 -0.53983,-1.62367 -1.10293,-1.44495 -0.73105,0.23203 -0.10454,1.89509 0.67951,1.80374 0.21583,-0.0251 0.34506,-0.13466 0.42342,-0.35879 z m -26.70846,-0.56677 c 0.0437,-0.1377 0.004,-0.3517 -0.0923,-0.49662 -0.24761,-0.37291 -4.00407,-2.45729 -4.1148,-2.28322 -0.13167,0.20701 -0.10233,0.58452 0.0622,0.80072 0.16104,0.21157 3.70614,2.21285 3.92885,2.21792 0.0766,0.002 0.17377,-0.10572 0.216,-0.2388 z m 23.92803,-0.60554 c 0.22995,-0.22994 0.16825,-0.96976 -0.11042,-1.32403 -0.52347,-0.66548 -1.16083,-0.5987 -1.16083,0.12163 0,0.91894 0.79899,1.67466 1.27125,1.2024 z m -2.47744,-1.52667 c 0.27403,-0.57175 -0.30439,-1.5102 -0.93084,-1.5102 -0.61603,0 -0.60172,0.92832 0.0239,1.55399 0.40534,0.40534 0.69841,0.39119 0.90689,-0.0438 z m -21.46917,-0.8285 c 0.0841,-0.13326 0.0657,-0.26671 -0.0637,-0.46382 -0.21408,-0.32604 -3.91949,-2.38839 -4.09563,-2.27953 -0.20418,0.12619 -0.13345,0.64035 0.11779,0.85629 0.35031,0.30109 3.68621,2.1428 3.8142,2.10578 0.0601,-0.0174 0.16241,-0.11581 0.22732,-0.21872 z m 0.0297,-2.98772 c 0.0545,-0.21711 0.0127,-0.36715 -0.14489,-0.52076 -0.35168,-0.34268 -3.91217,-2.25913 -4.04483,-2.17714 -0.20119,0.12434 -0.1342,0.50167 0.14501,0.81674 0.26321,0.29702 3.5463,2.16932 3.82327,2.18036 0.0797,0.003 0.17934,-0.13146 0.22144,-0.2992 z m -94.828037,34.21271 c -0.538361,-0.16377 -1.058613,-0.48235 -1.058613,-0.64826 0,-0.2389 -0.898376,-0.91174 -1.159086,-0.86809 -0.242075,0.0405 -0.812262,-0.57336 -1.52195,-1.63857 -0.316366,-0.47486 -0.380338,-0.65306 -0.278495,-0.77577 0.190729,-0.22982 -0.30683,-1.55812 -0.640609,-1.7102 -0.288557,-0.13147 -0.401944,-0.71971 -0.401944,-2.08523 0,-0.74155 0.03061,-0.86817 0.224787,-0.9298 0.420527,-0.13347 0.509138,-0.35668 0.320667,-0.80775 -0.21222,-0.50792 -0.154854,-0.57137 1.070097,-1.18359 0.638341,-0.31905 0.997966,-0.42506 1.441927,-0.42506 0.673352,0 0.755493,0.1527 0.240398,0.44689 -0.193095,0.11028 -0.338759,0.27644 -0.323698,0.36925 0.01519,0.0936 -0.103688,0.2037 -0.266886,0.24722 -0.21827,0.0582 -0.348305,0.0146 -0.503487,-0.16874 -0.206722,-0.24427 -0.207549,-0.24336 -0.06939,0.0765 0.111964,0.25919 0.216995,0.3237 0.527065,0.3237 0.227031,0 0.429391,-0.0753 0.489129,-0.18208 0.08619,-0.154 0.209556,-0.10996 0.80038,0.28575 0.975519,0.65336 1.259387,0.94134 1.189883,1.20713 -0.08907,0.34061 0.908902,1.74961 1.239227,1.74961 0.05311,0 -0.142403,-0.29339 -0.434476,-0.65197 -0.757109,-0.92953 -0.725775,-1.18967 0.197938,-1.64334 0.524109,-0.25741 0.733091,-0.31238 0.770984,-0.20281 0.02859,0.0827 0.267137,0.42697 0.530105,0.76511 0.262967,0.33813 0.530118,0.68185 0.593669,0.76383 0.08672,0.11186 -0.06713,0.22786 -0.616696,0.46499 -0.69762,0.30101 -0.729002,0.33215 -0.663693,0.6587 0.0377,0.18852 0.280561,0.8136 0.539684,1.38908 0.259123,0.57547 0.471133,1.07273 0.471133,1.10501 0,0.0323 -0.132422,0.0587 -0.294271,0.0587 -0.286586,0 -0.29427,0.0221 -0.29427,0.8458 0,0.69912 0.04317,0.89176 0.248942,1.11079 0.230727,0.2456 0.238438,0.30878 0.105379,0.86343 -0.150268,0.62639 -0.248158,0.71887 -1.066494,1.00759 -0.455479,0.16071 -0.464911,0.15846 -0.464911,-0.11073 0,-0.3228 0.54627,-0.60539 0.93299,-0.48265 0.142918,0.0454 0.244094,0.0254 0.244094,-0.0482 0,-0.16504 -0.617234,-0.16115 -0.984534,0.006 -0.193066,0.088 -0.314199,0.26424 -0.363997,0.52969 -0.07831,0.41743 -0.19806,0.46214 -0.770981,0.28787 z m 0.668625,-3.01906 c 0.281437,-0.28144 0.299805,-0.3632 0.247096,-1.09988 -0.09954,-1.39127 -1.017706,-2.87404 -2.131525,-3.44227 -1.138686,-0.58091 -1.94908,0.30226 -1.596711,1.7401 0.539693,2.20222 2.501705,3.78148 3.48114,2.80205 z m -1.432971,-0.14453 c -1.322776,-0.81825 -2.260691,-3.20648 -1.592014,-4.05378 0.396734,-0.50271 0.630087,-0.42223 0.795563,0.27438 0.231872,0.97613 0.628886,1.64852 1.487232,2.51881 0.78269,0.79357 0.804654,0.83167 0.644605,1.11823 -0.213922,0.383 -0.838698,0.44961 -1.335386,0.14236 z m 3.486409,1.85269 0.22681,-0.59691 -0.245814,-0.19905 c -0.337855,-0.27358 -0.424442,-1.66754 -0.103581,-1.66754 0.11124,0 0.432778,-0.13178 0.714529,-0.29285 0.722461,-0.41301 0.806546,-0.38781 0.806546,0.24174 0,0.29558 0.05892,0.64752 0.130942,0.78209 0.241906,0.452 -0.09082,1.1092 -0.888213,1.7544 -0.390872,0.31627 -0.74608,0.57504 -0.789352,0.57504 -0.04327,0 0.02339,-0.26861 0.148133,-0.59692 z m 0.103699,-3.06592 c 0,-0.0724 -0.211875,-0.60213 -0.470834,-1.17725 -0.258958,-0.57511 -0.470555,-1.0853 -0.470216,-1.13377 3.39e-4,-0.0485 0.371797,-0.25633 0.825462,-0.46192 l 0.824845,-0.3738 0.165821,0.32066 c 0.239678,0.46349 0.65513,1.73398 0.65513,2.00345 0,0.15903 -0.206774,0.34228 -0.668299,0.59225 -0.727819,0.39421 -0.861909,0.43005 -0.861909,0.23038 z m -3.550594,-5.33402 -1.019864,-0.73654 0.83192,-0.36963 0.83192,-0.36964 0.608792,0.34831 c 0.66379,0.37979 1.238451,0.8654 1.238451,1.04656 0,0.12245 -1.194398,0.84525 -1.367974,0.82785 -0.05686,-0.006 -0.562319,-0.34181 -1.123245,-0.74691 z m 11.72419,-0.25232 c -0.65132,-0.35903 -1.339914,-0.77692 -1.530209,-0.92864 l -0.345991,-0.27585 -0.02884,-9.28072 c -0.02252,-7.24702 0.0035,-9.34404 0.118539,-9.56968 0.08106,-0.15893 0.438334,-0.45617 0.793945,-0.66054 0.355611,-0.20436 3.321487,-1.9093 6.590836,-3.78875 3.269349,-1.87944 6.549996,-3.7473 7.290326,-4.15079 l 1.346054,-0.73361 1.398929,0.69153 c 0.769411,0.38035 1.487905,0.78977 1.596654,0.90982 0.180987,0.1998 0.200613,0.99775 0.23184,9.4261 0.02237,6.0378 -0.0071,9.31619 -0.08556,9.52259 -0.06582,0.17313 -0.363572,0.48669 -0.661667,0.69681 -0.619319,0.43653 -3.919067,2.39246 -8.291575,4.91484 -1.650859,0.95234 -3.53125,2.04071 -4.178646,2.41861 -1.914847,1.11775 -2.575735,1.45935 -2.825,1.46023 -0.129479,4.5e-4 -0.768314,-0.29293 -1.419633,-0.65195 z m 1.074902,-9.08882 c -0.0822,-8.88356 -0.07674,-9.28513 0.129459,-9.52766 0.1184,-0.13927 1.036288,-0.71417 2.039751,-1.27756 1.970824,-1.10651 8.904826,-5.11738 11.620072,-6.72146 1.484481,-0.87698 1.967967,-1.21345 1.74367,-1.21345 -0.112725,0 -4.509943,2.49817 -7.419471,4.21519 -1.48901,0.87872 -3.84612,2.25113 -5.238021,3.04981 -1.391901,0.79868 -2.676393,1.61038 -2.854427,1.80377 l -0.323698,0.35161 v 3.80433 c 0,6.75306 0.147966,14.78988 0.272296,14.78988 0.07618,0 0.08664,-3.19327 0.03037,-9.27446 z m 7.878064,2.29166 5.532292,-3.24162 0.03123,-3.36279 c 0.02259,-2.43212 -0.0054,-3.36279 -0.101265,-3.36279 -0.07287,0 -0.390959,0.16747 -0.706858,0.37217 -0.499589,0.32372 -0.815865,0.74651 -2.429464,3.2476 -1.020307,1.58148 -1.943402,2.92312 -2.051323,2.98142 -0.137104,0.0741 -0.450324,-0.002 -1.039665,-0.25291 -1.32152,-0.56236 -1.294928,-0.57866 -2.508794,1.53817 -2.295168,4.00251 -2.552717,4.50525 -2.552717,4.98302 0,0.31824 0.04462,0.43895 0.147135,0.39805 0.08093,-0.0323 2.636667,-1.51743 5.679427,-3.30032 z m 0.383711,-8.51709 c 0.741025,-0.59721 1.133373,-1.35403 1.186148,-2.28802 0.04496,-0.79563 0.0395,-0.81326 -0.38286,-1.23562 -0.381787,-0.38178 -0.478315,-0.42178 -0.886002,-0.3671 -1.179084,0.15815 -2.243184,1.52883 -2.243184,2.88948 0,0.59853 0.0496,0.76911 0.315517,1.08514 0.296144,0.35195 0.354031,0.37177 0.942824,0.32295 0.472919,-0.0392 0.735659,-0.13935 1.067557,-0.40683 z M 4.5732369,45.573252 c -0.592884,-0.21157 -0.790889,-0.39159 -1.044901,-0.94999 -0.642906,-1.41332 0.168604,-4.13074 1.639916,-5.4914 0.426066,-0.39403 0.524618,-0.57292 0.626378,-1.13706 0.613255,-3.39972 2.598363,-6.10106 5.0604621,-6.8863 0.113661,-0.0362 0.220115,-0.25288 0.266352,-0.54203 0.04236,-0.26491 0.238367,-0.88782 0.43557,-1.38425 1.042668,-2.62477 2.988718,-4.73902 5.209351,-5.65962 1.049997,-0.43529 2.597985,-0.44852 3.419009,-0.0292 0.6952,0.35504 1.182851,0.92097 1.471756,1.70801 0.206696,0.56308 0.260701,0.61145 1.248384,1.11822 l 1.032342,0.52969 -0.750632,0.0762 c -0.412847,0.0419 -0.79432,0.0353 -0.847716,-0.0147 -0.0534,-0.05 -0.170252,-0.29615 -0.259678,-0.54703 -0.08942,-0.25088 -0.164917,-0.36175 -0.167758,-0.24637 -0.0028,0.11537 0.07315,0.3972 0.168862,0.62627 l 0.174028,0.41651 0.922763,-0.0805 c 0.807946,-0.0705 0.984211,-0.0491 1.416612,0.17145 2.14785,1.09575 1.779534,4.86891 -0.72385,7.41538 -0.514105,0.52296 -1.247794,1.02605 -2.942709,2.01785 -2.201069,1.28797 -7.276772,4.29707 -12.2630601,7.27008 -2.079318,1.23977 -3.22164,1.80843 -3.579385,1.78186 -0.03827,-0.003 -0.268709,-0.0762 -0.512096,-0.16307 z m 11.2504641,-8.54341 c 0.506243,-0.32436 1.071268,-0.66774 1.255611,-0.76307 l 0.335168,-0.17332 0.03918,-2.04412 c 0.02797,-1.45913 0.08314,-2.09701 0.192786,-2.22891 0.08448,-0.10163 0.518845,-0.40177 0.96525,-0.66698 0.446405,-0.2652 0.844267,-0.53497 0.884137,-0.59948 0.03987,-0.0645 -0.712222,-0.93561 -1.671316,-1.93578 l -1.743807,-1.81848 -0.225207,0.43678 c -0.255813,0.49614 -3.365266,7.2136 -3.365266,7.2701 0,0.0202 0.419161,-0.18475 0.931469,-0.45555 0.512308,-0.27079 0.975784,-0.44835 1.029948,-0.39458 0.05416,0.0538 0.115286,0.96749 0.135828,2.03047 0.02682,1.38799 0.07658,1.93269 0.176563,1.93268 0.07657,-1e-5 0.553412,-0.2654 1.059656,-0.58976 z m -13.6329421,7.30974 c -1.49227101,-0.87534 -1.79525601,-1.13539 -2.00089901,-1.71736 -0.53239,-1.50666 0.07583,-3.39438 1.56154201,-4.84656 l 0.863979,-0.84447 0.101567,-0.98443 c 0.19171,-1.85814 0.955232,-3.42132 2.347659,-4.80641 0.804826,-0.80058 1.18033,-1.04951 2.473038,-1.63943 0.09225,-0.0421 0.23286,-0.39588 0.312476,-0.78619 0.338797,-1.66091 1.494561,-3.74427 2.8030951,-5.05281 1.227981,-1.22798 2.585109,-1.96306 3.975273,-2.15317 1.10715,-0.15142 1.712214,0.006 3.124142,0.81238 0.883811,0.50481 1.154837,0.70528 0.890606,0.65878 -1.355297,-0.23855 -3.741923,0.95852 -5.245747,2.63114 -1.082781,1.20431 -2.318949,3.56615 -2.50371,4.78361 -0.06735,0.44379 -0.114206,0.49712 -0.552058,0.6283 -1.4455681,0.4331 -2.9793531,2.01987 -3.9196821,4.05509 -0.402625,0.87143 -0.876593,2.48855 -0.876593,2.99083 0,0.19132 -0.251051,0.55334 -0.75195,1.08432 -1.568347,1.66253 -2.245813,4.18094 -1.479394,5.49949 0.1223,0.2104 0.184422,0.38138 0.138051,0.37995 -0.04637,-0.001 -0.613999,-0.31331 -1.261395,-0.69306 z m 55.3817721,-24.414 c -0.873985,-0.46872 -1.963844,-1.05539 -2.421911,-1.30371 l -0.832849,-0.45149 -0.975823,0.61157 c -0.72294,0.45307 -1.047771,0.5935 -1.253456,0.54188 -0.190368,-0.0478 -0.632737,-0.58735 -1.407401,-1.71663 -0.621372,-0.90581 -1.298082,-1.77149 -1.5038,-1.92372 -0.205717,-0.15224 -1.372355,-0.82188 -2.592528,-1.4881 -2.476999,-1.35244 -2.799427,-1.58426 -3.171821,-2.28042 -0.254142,-0.47509 -0.260414,-0.59044 -0.293992,-5.4068404 l -0.03431,-4.92139 0.370456,-0.34606 c 0.203751,-0.19033 0.464068,-0.34605997 0.578482,-0.34605997 0.451767,0 14.609554,7.25999997 15.284618,7.83782997 0.241691,0.20688 0.596657,0.65999 0.788814,1.00692 l 0.349375,0.6307804 0.03662,4.41406 c 0.02014,2.42773 0.0027,4.64583 -0.03886,4.9291 -0.09154,0.62468 -0.498213,1.07599 -0.963505,1.06927 -0.180977,-0.003 -1.044127,-0.38826 -1.918111,-0.85699 z m -0.359691,-3.84002 c 0.322512,-0.32252 0.416183,-0.97345 0.233814,-1.62481 -0.116115,-0.41472 -0.364891,-0.77036 -1.014502,-1.4503 -0.624064,-0.6532 -0.860663,-0.98624 -0.860663,-1.21147 0,-0.22824 0.06016,-0.31062 0.226874,-0.31062 0.262856,0 0.714793,0.52372 0.714793,0.82832 0,0.18252 0.512264,0.46648 0.841523,0.46648 0.292894,0 -0.07653,-1.14923 -0.523443,-1.62834 -0.345187,-0.37006 -1.056782,-0.72583 -1.451779,-0.72583 -0.556244,0 -0.749635,0.29518 -0.749635,1.14421 0,0.41503 0.05881,0.8703 0.130683,1.01171 0.07188,0.1414 0.495626,0.60924 0.941667,1.03963 0.814908,0.78631 0.989486,1.16949 0.675766,1.48321 -0.101819,0.10182 -0.214594,0.0942 -0.45657,-0.031 -0.334635,-0.17305 -0.467587,-0.39199 -0.467587,-0.77003 0,-0.2279 -0.536779,-0.58194 -0.882301,-0.58194 -0.461468,0 0.217055,1.64506 0.870414,2.11029 0.730403,0.52009 1.405788,0.6156 1.770946,0.25045 z m -3.25841,-3.66563 c -0.0154,-1.3216 -0.02883,-2.4558904 -0.02984,-2.5206304 -0.003,-0.19048 -1.278825,-0.83021 -1.399055,-0.7015 -0.05804,0.0621 -0.21156,0.64265 -0.341158,1.2900404 -0.129598,0.6474 -0.262805,1.09763 -0.296016,1.00052 -0.03321,-0.0971 -0.149393,-0.73273 -0.258182,-1.4125 -0.10879,-0.6797604 -0.2239,-1.3298704 -0.2558,-1.4446704 -0.0319,-0.11481 -0.371851,-0.36717 -0.755446,-0.56081 l -0.697444,-0.35207 v 2.6471104 2.64711 l 0.34728,0.17958 c 0.191003,0.0988 0.402878,0.17959 0.470833,0.17959 0.08026,0 0.12681,-0.60835 0.132847,-1.7362 0.0051,-0.95491 0.02617,-1.6832304 0.04681,-1.61849 0.02063,0.0647 0.160368,0.90764 0.310524,1.87312 0.211694,1.36116 0.325131,1.80397 0.505077,1.97162 0.49639,0.46245 0.604994,0.26843 0.982597,-1.75542 0.111729,-0.59884 0.239411,-1.0888 0.283737,-1.0888 0.04433,0 0.07511,0.35754 0.06841,0.79453 -0.0067,0.43699 -0.0027,1.22983 0.0089,1.76187 0.02017,0.92487 0.03531,0.97503 0.344794,1.14266 0.178034,0.0964 0.376667,0.15979 0.441406,0.1408 0.0747,-0.0219 0.107478,-0.9126 0.08971,-2.43746 z m -5.021656,-0.3154 c 0.228519,-0.15259 0.400173,-0.58899 0.400173,-1.01738 0,-0.34239 -0.06193,-0.44872 -0.347279,-0.59628 -0.494982,-0.25597 -0.594387,-0.22633 -0.594387,0.17723 0,0.46548 -0.2927,0.57977 -0.627771,0.24514 -0.230877,-0.23057 -0.258742,-0.40073 -0.294099,-1.7958904 -0.04313,-1.70185 0.02087,-1.90345 0.503847,-1.587 0.238191,0.15607 0.300314,0.29312 0.300314,0.6625 0,0.42406 0.0417,0.48701 0.466144,0.70354 0.590864,0.30144 0.59336,0.30107 0.592575,-0.0859 -0.002,-0.9703 -0.696783,-1.99048 -1.587287,-2.33057 -0.488739,-0.18665 -0.546994,-0.1872 -0.820842,-0.008 -0.402723,0.26388 -0.445281,0.51951 -0.398197,2.39181 0.03833,1.5242204 0.0608,1.6578404 0.366152,2.1772804 0.48348,0.82247 1.560703,1.38375 2.040657,1.06328 z m 11.677719,8.00861 c 0.04472,-0.24423 0.08131,-2.53631 0.08131,-5.09353 v -4.64947 L 60.360181,9.6946316 c -0.598262,-1.21864 -0.347741,-1.07163 -11.704821,-6.8687 l -4.267693,-2.17837997 0.763406,-0.35724 c 0.702433,-0.32871 0.798858,-0.34564 1.207276,-0.21191 0.396044,0.12968 7.265905,3.63812997 12.708661,6.49032997 2.831671,1.4839 3.272874,1.9112 3.556265,3.4442104 0.175282,0.94818 0.173018,8.37487 -0.0027,8.87895 -0.09372,0.26886 -0.370739,0.53655 -0.971094,0.93842 -1.210369,0.8102 -1.131623,0.78876 -1.038981,0.28283 z"
     id="path10"
     inkscape:label="original-vector" /></svg>
